<svg width="1195" height="116" viewBox="0 0 1195 116" fill="none" xmlns="http://www.w3.org/2000/svg">
<path d="M287 101H2V95H287V101Z" fill="white"/>
<path d="M287 101H2V95H287V101Z" stroke="white" stroke-width="1.33333" stroke-miterlimit="10"/>
<path d="M856 102H571V96H856V102Z" fill="white"/>
<path d="M856 102H571V96H856V102Z" stroke="white" stroke-width="1.33333" stroke-miterlimit="10"/>
<path d="M297.572 87.7623H300.641L307.859 105.391H308.108L315.325 87.7623H318.395V109H315.989V92.8644H315.781L309.145 109H306.822L300.185 92.8644H299.978V109H297.572V87.7623ZM323.551 109V87.7623H336.368V90.0437H326.123V97.2197H335.705V99.5011H326.123V106.719H336.534V109H323.551ZM357.844 87.7623V109H355.356L343.783 92.3251H343.575V109H341.004V87.7623H343.492L355.107 104.479H355.314V87.7623H357.844ZM374.605 93.0718C374.48 92.0209 373.976 91.2052 373.091 90.6244C372.206 90.0437 371.121 89.7534 369.835 89.7534C368.895 89.7534 368.072 89.9055 367.367 90.2096C366.668 90.5138 366.122 90.9321 365.728 91.4644C365.341 91.9967 365.148 92.6016 365.148 93.2792C365.148 93.846 365.282 94.3334 365.552 94.7413C365.828 95.1423 366.181 95.4776 366.61 95.7472C367.038 96.0099 367.488 96.2277 367.958 96.4005C368.428 96.5664 368.86 96.7012 369.254 96.8049L371.411 97.3857C371.964 97.5308 372.579 97.7313 373.257 97.9871C373.941 98.2429 374.595 98.592 375.217 99.0345C375.846 99.47 376.364 100.03 376.772 100.714C377.18 101.399 377.384 102.239 377.384 103.234C377.384 104.382 377.083 105.419 376.482 106.345C375.887 107.272 375.016 108.008 373.869 108.554C372.728 109.1 371.342 109.373 369.71 109.373C368.189 109.373 366.872 109.128 365.759 108.637C364.653 108.146 363.782 107.462 363.146 106.584C362.517 105.706 362.161 104.686 362.078 103.525H364.733C364.802 104.327 365.071 104.99 365.542 105.516C366.019 106.034 366.62 106.421 367.346 106.677C368.079 106.926 368.867 107.05 369.71 107.05C370.692 107.05 371.573 106.891 372.355 106.573C373.136 106.249 373.755 105.799 374.211 105.225C374.667 104.645 374.895 103.967 374.895 103.193C374.895 102.488 374.698 101.914 374.304 101.471C373.91 101.029 373.392 100.669 372.749 100.393C372.106 100.116 371.411 99.8744 370.664 99.667L368.051 98.9204C366.392 98.4434 365.078 97.7624 364.111 96.8775C363.143 95.9926 362.659 94.8346 362.659 93.4036C362.659 92.2145 362.98 91.1775 363.623 90.2926C364.273 89.4008 365.144 88.7095 366.236 88.2186C367.336 87.7209 368.563 87.472 369.918 87.472C371.287 87.472 372.503 87.7174 373.568 88.2082C374.633 88.6922 375.476 89.3559 376.098 90.1993C376.727 91.0427 377.059 92.0002 377.094 93.0718H374.605ZM389.825 109V87.7623H392.397V97.2197H403.721V87.7623H406.293V109H403.721V99.5011H392.397V109H389.825ZM412.313 109H409.616L417.415 87.7623H420.069L427.868 109H425.171L418.825 91.1222H418.659L412.313 109ZM413.308 100.704H424.176V102.985H413.308V100.704ZM433.747 87.7623V109H431.176V87.7623H433.747ZM438.904 109V87.7623H446.08C447.739 87.7623 449.101 88.0458 450.166 88.6127C451.23 89.1727 452.018 89.9435 452.53 90.9252C453.042 91.9069 453.297 93.0234 453.297 94.2747C453.297 95.526 453.042 96.6356 452.53 97.6034C452.018 98.5713 451.234 99.3317 450.176 99.8848C449.118 100.431 447.767 100.704 446.121 100.704H440.314V98.3812H446.038C447.172 98.3812 448.085 98.2153 448.776 97.8834C449.474 97.5516 449.979 97.0815 450.29 96.4731C450.608 95.8578 450.767 95.125 450.767 94.2747C450.767 93.4243 450.608 92.6812 450.29 92.0451C449.972 91.4091 449.464 90.9183 448.766 90.5726C448.067 90.22 447.144 90.0437 445.997 90.0437H441.476V109H438.904ZM448.9 99.4596L454.127 109H451.14L445.997 99.4596H448.9ZM477.41 93.0718C477.286 92.0209 476.781 91.2052 475.896 90.6244C475.011 90.0437 473.926 89.7534 472.64 89.7534C471.7 89.7534 470.877 89.9055 470.172 90.2096C469.474 90.5138 468.927 90.9321 468.533 91.4644C468.146 91.9967 467.953 92.6016 467.953 93.2792C467.953 93.846 468.087 94.3334 468.357 94.7413C468.634 95.1423 468.986 95.4776 469.415 95.7472C469.843 96.0099 470.293 96.2277 470.763 96.4005C471.233 96.5664 471.665 96.7012 472.059 96.8049L474.216 97.3857C474.769 97.5308 475.384 97.7313 476.062 97.9871C476.746 98.2429 477.4 98.592 478.022 99.0345C478.651 99.47 479.169 100.03 479.577 100.714C479.985 101.399 480.189 102.239 480.189 103.234C480.189 104.382 479.888 105.419 479.287 106.345C478.692 107.272 477.821 108.008 476.674 108.554C475.533 109.1 474.147 109.373 472.515 109.373C470.994 109.373 469.678 109.128 468.564 108.637C467.458 108.146 466.587 107.462 465.951 106.584C465.322 105.706 464.966 104.686 464.883 103.525H467.538C467.607 104.327 467.877 104.99 468.347 105.516C468.824 106.034 469.425 106.421 470.151 106.677C470.884 106.926 471.672 107.05 472.515 107.05C473.497 107.05 474.379 106.891 475.16 106.573C475.941 106.249 476.56 105.799 477.016 105.225C477.472 104.645 477.7 103.967 477.7 103.193C477.7 102.488 477.503 101.914 477.109 101.471C476.715 101.029 476.197 100.669 475.554 100.393C474.911 100.116 474.216 99.8744 473.469 99.667L470.856 98.9204C469.197 98.4434 467.884 97.7624 466.916 96.8775C465.948 95.9926 465.464 94.8346 465.464 93.4036C465.464 92.2145 465.785 91.1775 466.428 90.2926C467.078 89.4008 467.949 88.7095 469.041 88.2186C470.141 87.7209 471.368 87.472 472.723 87.472C474.092 87.472 475.308 87.7174 476.373 88.2082C477.438 88.6922 478.281 89.3559 478.903 90.1993C479.532 91.0427 479.864 92.0002 479.899 93.0718H477.41ZM485.289 109H482.592L490.391 87.7623H493.045L500.844 109H498.147L491.801 91.1222H491.635L485.289 109ZM486.284 100.704H497.152V102.985H486.284V100.704ZM504.152 109V87.7623H506.723V106.719H516.595V109H504.152ZM537.67 98.3812C537.67 100.621 537.265 102.557 536.457 104.188C535.648 105.82 534.538 107.078 533.128 107.963C531.717 108.848 530.107 109.29 528.295 109.29C526.484 109.29 524.873 108.848 523.463 107.963C522.053 107.078 520.943 105.82 520.134 104.188C519.325 102.557 518.921 100.621 518.921 98.3812C518.921 96.1413 519.325 94.2055 520.134 92.574C520.943 90.9425 522.053 89.6842 523.463 88.7993C524.873 87.9144 526.484 87.472 528.295 87.472C530.107 87.472 531.717 87.9144 533.128 88.7993C534.538 89.6842 535.648 90.9425 536.457 92.574C537.265 94.2055 537.67 96.1413 537.67 98.3812ZM535.181 98.3812C535.181 96.5422 534.873 94.9902 534.258 93.7251C533.65 92.4599 532.824 91.5024 531.78 90.8526C530.743 90.2027 529.581 89.8778 528.295 89.8778C527.01 89.8778 525.845 90.2027 524.801 90.8526C523.764 91.5024 522.938 92.4599 522.322 93.7251C521.714 94.9902 521.41 96.5422 521.41 98.3812C521.41 100.22 521.714 101.772 522.322 103.037C522.938 104.302 523.764 105.26 524.801 105.91C525.845 106.56 527.01 106.885 528.295 106.885C529.581 106.885 530.743 106.56 531.78 105.91C532.824 105.26 533.65 104.302 534.258 103.037C534.873 101.772 535.181 100.22 535.181 98.3812ZM558.835 87.7623V109H556.346L544.773 92.3251H544.566V109H541.994V87.7623H544.483L556.097 104.479H556.305V87.7623H558.835Z" fill="white"/>
<path d="M743.712 4.77289L743.458 34.8657L743.712 60.4193C745.181 60.6161 746.397 60.7169 747.358 60.7169C750.128 60.7169 752.968 60.2209 755.878 59.2289C758.787 58.2401 761.36 56.8945 763.592 55.1985C765.035 54.0945 766.525 52.6225 768.065 50.7825C769.603 48.9441 770.84 47.1489 771.773 45.3921C772.312 44.3745 772.888 43.8641 773.512 43.8641C774.443 43.8641 774.91 44.2609 774.91 45.0545C774.91 45.9009 774.21 47.3377 772.81 49.3617C771.408 51.3857 769.875 53.2033 768.205 54.8161C764.582 58.2961 760.323 60.7169 755.429 62.0737C752.485 62.8929 749.656 63.3057 746.938 63.3057C742.978 63.3057 739 62.4561 735.011 60.7585C728.616 58.0689 723.749 53.8129 720.41 47.9809C717.635 43.1425 716.25 38.0065 716.25 32.5745C716.25 27.0289 717.693 21.7921 720.579 16.8689C723.662 11.6337 728.021 7.62886 733.653 4.85606C737.755 2.87686 742.186 1.88649 746.938 1.88649C755.088 1.88649 762.134 4.64488 768.077 10.1633C770.906 12.7937 772.322 14.6897 772.322 15.8497C772.322 16.1633 772.179 16.4465 771.898 16.6993C771.614 16.9537 771.302 17.0817 770.965 17.0817C770.4 17.0817 769.72 16.5297 768.931 15.4257C766.501 12.0577 763.293 9.39046 759.31 7.42406C755.325 5.45766 751.115 4.47527 746.68 4.47527C745.635 4.47527 744.645 4.57449 743.712 4.77289" fill="white"/>
<path d="M743.712 4.77289L743.458 34.8657L743.712 60.4193C745.181 60.6161 746.397 60.7169 747.358 60.7169C750.128 60.7169 752.968 60.2209 755.878 59.2289C758.787 58.2401 761.36 56.8945 763.592 55.1985C765.035 54.0945 766.525 52.6225 768.065 50.7825C769.603 48.9441 770.84 47.1489 771.773 45.3921C772.312 44.3745 772.888 43.8641 773.512 43.8641C774.443 43.8641 774.91 44.2609 774.91 45.0545C774.91 45.9009 774.21 47.3377 772.81 49.3617C771.408 51.3857 769.875 53.2033 768.205 54.8161C764.582 58.2961 760.323 60.7169 755.429 62.0737C752.485 62.8929 749.656 63.3057 746.938 63.3057C742.978 63.3057 739 62.4561 735.011 60.7585C728.616 58.0689 723.749 53.8129 720.41 47.9809C717.635 43.1425 716.25 38.0065 716.25 32.5745C716.25 27.0289 717.693 21.7921 720.579 16.8689C723.662 11.6337 728.021 7.62886 733.653 4.85606C737.755 2.87686 742.186 1.88649 746.938 1.88649C755.088 1.88649 762.134 4.64488 768.077 10.1633C770.906 12.7937 772.322 14.6897 772.322 15.8497C772.322 16.1633 772.179 16.4465 771.898 16.6993C771.614 16.9537 771.302 17.0817 770.965 17.0817C770.4 17.0817 769.72 16.5297 768.931 15.4257C766.501 12.0577 763.293 9.39046 759.31 7.42406C755.325 5.45766 751.115 4.47527 746.68 4.47527C745.635 4.47527 744.645 4.57449 743.712 4.77289V4.77289Z" stroke="white" stroke-width="1.33333" stroke-miterlimit="10"/>
<path d="M801.542 16.7825L801.416 59.6129C802.291 59.6689 802.901 59.6977 803.24 59.6977C807.173 59.6977 810.936 58.5937 814.531 56.3825C817.982 54.2289 820.571 51.3697 822.297 47.8001C823.657 44.9681 824.336 41.8529 824.336 38.4529C824.336 31.6273 821.817 26.0897 816.779 21.8401C812.705 18.4129 808.275 16.6993 803.494 16.6993C803.097 16.6993 802.448 16.7265 801.542 16.7825V16.7825ZM802.773 14.0673C807.328 14.0673 811.645 15.3265 815.718 17.8449C819.481 20.1665 822.355 23.3345 824.336 27.3521C826.089 30.8897 826.968 34.6401 826.968 38.6017C826.968 41.3185 826.449 44.0497 825.417 46.7937C824.385 49.5393 822.977 51.9729 821.195 54.0945C818.705 57.0081 815.662 59.2033 812.069 60.6721C809.125 61.8897 806.056 62.4993 802.857 62.4993C797.51 62.4993 792.699 60.9137 788.425 57.7441C785.088 55.3105 782.553 52.1841 780.827 48.3649C779.385 45.1377 778.662 41.7281 778.662 38.1345C778.662 31.1169 781.211 25.2865 786.302 20.6465C791.086 16.3457 796.576 14.1521 802.773 14.0673" fill="white"/>
<path d="M801.542 16.7825L801.416 59.6129C802.291 59.6689 802.901 59.6977 803.24 59.6977C807.173 59.6977 810.936 58.5937 814.531 56.3825C817.982 54.2289 820.571 51.3697 822.297 47.8001C823.657 44.9681 824.336 41.8529 824.336 38.4529C824.336 31.6273 821.817 26.0897 816.779 21.8401C812.705 18.4129 808.275 16.6993 803.494 16.6993C803.097 16.6993 802.448 16.7265 801.542 16.7825V16.7825ZM802.773 14.0673C807.328 14.0673 811.645 15.3265 815.718 17.8449C819.481 20.1665 822.355 23.3345 824.336 27.3521C826.089 30.8897 826.968 34.6401 826.968 38.6017C826.968 41.3185 826.449 44.0497 825.417 46.7937C824.385 49.5393 822.977 51.9729 821.195 54.0945C818.705 57.0081 815.662 59.2033 812.069 60.6721C809.125 61.8897 806.056 62.4993 802.857 62.4993C797.51 62.4993 792.699 60.9137 788.425 57.7441C785.088 55.3105 782.553 52.1841 780.827 48.3649C779.385 45.1377 778.662 41.7281 778.662 38.1345C778.662 31.1169 781.211 25.2865 786.302 20.6465C791.086 16.3457 796.576 14.1521 802.773 14.0673V14.0673Z" stroke="white" stroke-width="1.33333" stroke-miterlimit="10"/>
<path d="M843.759 43.9488C847.52 43.9488 850.549 44.784 852.84 46.4544C855.135 48.1232 856.28 50.3584 856.28 53.16C856.28 56.0192 855.119 58.3456 852.8 60.1424C850.479 61.9408 847.466 62.8384 843.759 62.8384C839.088 62.8384 835.595 61.5376 833.272 58.9328C831.915 57.4048 831.235 55.6208 831.235 53.584C831.235 50.6992 832.368 48.3856 834.632 46.6464C836.896 44.904 839.938 44.0064 843.759 43.9488" fill="white"/>
<path d="M843.759 43.9488C847.52 43.9488 850.549 44.784 852.84 46.4544C855.135 48.1232 856.28 50.3584 856.28 53.16C856.28 56.0192 855.119 58.3456 852.8 60.1424C850.479 61.9408 847.466 62.8384 843.759 62.8384C839.088 62.8384 835.595 61.5376 833.272 58.9328C831.915 57.4048 831.235 55.6208 831.235 53.584C831.235 50.6992 832.368 48.3856 834.632 46.6464C836.896 44.904 839.938 44.0064 843.759 43.9488V43.9488Z" stroke="white" stroke-width="1.33333" stroke-miterlimit="10"/>
<path d="M242.036 2.38575L251.454 34.6082L255.732 48.8818L259.576 61.8146L260.094 63.4577H233.799L225.524 32.8802L207.65 59.7377L189.324 34.2098C187.555 40.4386 185.625 48.0817 183.538 57.1377C182.783 60.6001 182.241 62.6546 181.909 63.3058C181.578 63.9538 180.908 64.2786 179.901 64.2786C178.633 64.2786 178 63.8465 178 62.9825C178 62.7233 178.404 61.2674 179.212 58.6146L181.898 49.4002L186.574 33.485L195.712 2.38575L219.393 36.7106L242.036 2.38575Z" fill="white"/>
<path d="M242.036 2.38575L251.454 34.6082L255.732 48.8818L259.576 61.8146L260.094 63.4577H233.799L225.524 32.8802L207.65 59.7377L189.324 34.2098C187.555 40.4386 185.625 48.0817 183.538 57.1377C182.783 60.6001 182.241 62.6546 181.909 63.3058C181.578 63.9538 180.908 64.2786 179.901 64.2786C178.633 64.2786 178 63.8465 178 62.9825C178 62.7233 178.404 61.2674 179.212 58.6146L181.898 49.4002L186.574 33.485L195.712 2.38575L219.393 36.7106L242.036 2.38575Z" stroke="white" stroke-width="1.33333" stroke-miterlimit="10"/>
<path d="M286.435 17.8272L286.306 61.4688C287.198 61.5264 287.819 61.5553 288.165 61.5553C292.173 61.5553 296.008 60.4288 299.67 58.1776C303.187 55.984 305.826 53.0689 307.586 49.4321C308.97 46.5473 309.662 43.3712 309.662 39.9072C309.662 32.9504 307.096 27.3088 301.963 22.9792C297.81 19.4864 293.298 17.7392 288.426 17.7392C288.021 17.7392 287.357 17.768 286.435 17.8272V17.8272ZM287.688 15.0576C292.331 15.0576 296.728 16.3408 300.882 18.9072C304.715 21.272 307.643 24.5009 309.662 28.5969C311.45 32.2001 312.344 36.0208 312.344 40.0576C312.344 42.8272 311.818 45.6097 310.765 48.4065C309.714 51.2033 308.278 53.6833 306.462 55.8465C303.923 58.8161 300.824 61.0512 297.163 62.5488C294.163 63.7888 291.035 64.4097 287.776 64.4097C282.326 64.4097 277.424 62.7953 273.07 59.5649C269.668 57.0865 267.086 53.8993 265.328 50.0065C263.857 46.7185 263.123 43.2448 263.123 39.5808C263.123 32.4304 265.717 26.4929 270.907 21.7617C275.779 17.3793 281.374 15.144 287.688 15.0576" fill="white"/>
<path d="M286.435 17.8272L286.306 61.4688C287.198 61.5264 287.819 61.5553 288.165 61.5553C292.173 61.5553 296.008 60.4288 299.67 58.1776C303.187 55.984 305.826 53.0689 307.586 49.4321C308.97 46.5473 309.662 43.3712 309.662 39.9072C309.662 32.9504 307.096 27.3088 301.963 22.9792C297.81 19.4864 293.298 17.7392 288.426 17.7392C288.021 17.7392 287.357 17.768 286.435 17.8272V17.8272ZM287.688 15.0576C292.331 15.0576 296.728 16.3408 300.882 18.9072C304.715 21.272 307.643 24.5009 309.662 28.5969C311.45 32.2001 312.344 36.0208 312.344 40.0576C312.344 42.8272 311.818 45.6097 310.765 48.4065C309.714 51.2033 308.278 53.6833 306.462 55.8465C303.923 58.8161 300.824 61.0512 297.163 62.5488C294.163 63.7888 291.035 64.4097 287.776 64.4097C282.326 64.4097 277.424 62.7953 273.07 59.5649C269.668 57.0865 267.086 53.8993 265.328 50.0065C263.857 46.7185 263.123 43.2448 263.123 39.5808C263.123 32.4304 265.717 26.4929 270.907 21.7617C275.779 17.3793 281.374 15.144 287.688 15.0576V15.0576Z" stroke="white" stroke-width="1.33333" stroke-miterlimit="10"/>
<path d="M375.968 16.224L375.84 50.2224L375.968 63.4576H353.824V57.3585C350.167 59.8689 346.832 61.6689 343.824 62.7665C340.813 63.8609 337.666 64.4097 334.384 64.4097C328.365 64.4097 324.002 62.6209 321.295 59.0465C320.287 57.7201 319.588 56.2145 319.199 54.5265C318.808 52.8385 318.616 50.4385 318.616 47.3265L318.703 37.2033L318.746 30.4545L318.528 16.224H340.676L340.416 37.9392L340.458 46.1585L340.501 51.6945C340.501 55.0097 340.704 57 341.108 57.6624C341.597 58.4128 342.52 58.7856 343.876 58.7856C345.26 58.7856 346.693 58.4272 348.18 57.7056C349.664 56.9856 351.589 55.7008 353.954 53.856L353.997 48.1888L354.084 32.7488L353.824 17.5665V16.224H375.968" fill="white"/>
<path d="M375.968 16.224L375.84 50.2224L375.968 63.4576H353.824V57.3585C350.167 59.8689 346.832 61.6689 343.824 62.7665C340.813 63.8609 337.666 64.4097 334.384 64.4097C328.365 64.4097 324.002 62.6209 321.295 59.0465C320.287 57.7201 319.588 56.2145 319.199 54.5265C318.808 52.8385 318.616 50.4385 318.616 47.3265L318.703 37.2033L318.746 30.4545L318.528 16.224H340.676L340.416 37.9392L340.458 46.1585L340.501 51.6945C340.501 55.0097 340.704 57 341.108 57.6624C341.597 58.4128 342.52 58.7856 343.876 58.7856C345.26 58.7856 346.693 58.4272 348.18 57.7056C349.664 56.9856 351.589 55.7008 353.954 53.856L353.997 48.1888L354.084 32.7488L353.824 17.5665V16.224H375.968Z" stroke="white" stroke-width="1.33333" stroke-miterlimit="10"/>
<path d="M385.226 55.456C385.803 55.456 386.538 55.8913 387.432 56.7633C388.874 58.1265 390.92 59.296 393.575 60.2688C396.226 61.2416 398.706 61.7265 401.013 61.7265C402.08 61.7265 402.88 61.5472 403.415 61.1824C403.947 60.8208 404.215 60.2913 404.215 59.5937C404.215 58.8961 403.847 58.0609 403.111 57.0897C402.376 56.1153 400.739 54.2593 398.203 51.5185C392.003 44.8865 387.987 40.2225 386.157 37.5265C384.325 34.8305 383.408 32.2433 383.408 29.7633C383.408 27.6001 384.037 25.5329 385.29 23.5569C386.546 21.5809 388.298 19.9009 390.546 18.5185C394.266 16.2129 398.533 15.0576 403.349 15.0576C406.896 15.0576 410.643 15.808 414.595 17.3072C417.68 18.4896 419.223 19.7729 419.223 21.1569C419.223 21.5889 419.043 21.9793 418.683 22.3249C418.32 22.6689 417.911 22.8433 417.448 22.8433C416.901 22.8433 415.879 22.3089 414.378 21.2433C411.323 19.0529 407.992 17.9553 404.386 17.9553C403.119 17.9553 402.16 18.1585 401.511 18.5601C400.863 18.9665 400.538 19.5856 400.538 20.4208C400.538 21.4016 401.136 22.6416 402.333 24.1408C403.528 25.64 405.959 28.1777 409.621 31.7537C413.195 35.2433 415.466 37.5281 416.434 38.6097C417.399 39.6897 418.328 40.9392 419.223 42.3488C420.751 44.7744 421.515 47.3968 421.515 50.2224C421.515 54.664 419.367 58.2545 415.071 60.9937C411.552 63.2705 407.226 64.4097 402.095 64.4097C396.386 64.4097 391.325 63.1409 386.914 60.6049C385.616 59.8257 384.728 59.1904 384.253 58.7008C383.778 58.2112 383.539 57.6768 383.539 57.1008C383.539 56.0336 384.101 55.4864 385.226 55.456" fill="white"/>
<path d="M385.226 55.456C385.803 55.456 386.538 55.8913 387.432 56.7633C388.874 58.1265 390.92 59.296 393.575 60.2688C396.226 61.2416 398.706 61.7265 401.013 61.7265C402.08 61.7265 402.88 61.5472 403.415 61.1824C403.947 60.8208 404.215 60.2913 404.215 59.5937C404.215 58.8961 403.847 58.0609 403.111 57.0897C402.376 56.1153 400.739 54.2593 398.203 51.5185C392.003 44.8865 387.987 40.2225 386.157 37.5265C384.325 34.8305 383.408 32.2433 383.408 29.7633C383.408 27.6001 384.037 25.5329 385.29 23.5569C386.546 21.5809 388.298 19.9009 390.546 18.5185C394.266 16.2129 398.533 15.0576 403.349 15.0576C406.896 15.0576 410.643 15.808 414.595 17.3072C417.68 18.4896 419.223 19.7729 419.223 21.1569C419.223 21.5889 419.043 21.9793 418.683 22.3249C418.32 22.6689 417.911 22.8433 417.448 22.8433C416.901 22.8433 415.879 22.3089 414.378 21.2433C411.323 19.0529 407.992 17.9553 404.386 17.9553C403.119 17.9553 402.16 18.1585 401.511 18.5601C400.863 18.9665 400.538 19.5856 400.538 20.4208C400.538 21.4016 401.136 22.6416 402.333 24.1408C403.528 25.64 405.959 28.1777 409.621 31.7537C413.195 35.2433 415.466 37.5281 416.434 38.6097C417.399 39.6897 418.328 40.9392 419.223 42.3488C420.751 44.7744 421.515 47.3968 421.515 50.2224C421.515 54.664 419.367 58.2545 415.071 60.9937C411.552 63.2705 407.226 64.4097 402.095 64.4097C396.386 64.4097 391.325 63.1409 386.914 60.6049C385.616 59.8257 384.728 59.1904 384.253 58.7008C383.778 58.2112 383.539 57.6768 383.539 57.1008C383.539 56.0336 384.101 55.4864 385.226 55.456V55.456Z" stroke="white" stroke-width="1.33333" stroke-miterlimit="10"/>
<path d="M451.36 1.00012L450.883 14.9713L450.84 16.3121C453.349 16.3121 455.627 16.2129 457.675 16.0081C458.021 15.9809 458.323 15.9665 458.582 15.9665C459.851 15.9665 460.486 16.5505 460.486 17.7201C460.486 18.7985 459.822 19.3393 458.496 19.3393C458.093 19.3393 457.587 19.3105 456.982 19.2545C454.705 19.0801 453.075 18.9937 452.096 18.9937H450.84L450.797 27.3745L450.945 44.1745L451.057 53.1649C451.057 55.2689 451.216 56.7393 451.536 57.5745C451.853 58.4129 452.405 58.8305 453.187 58.8305C454.232 58.8305 455.347 58.2241 456.536 57.0129C457.694 55.8017 458.608 54.3185 459.275 52.5585C459.88 50.8865 460.6 50.0497 461.437 50.0497C462.417 50.0497 462.907 50.5985 462.907 51.6945C462.907 52.7889 462.417 54.1521 461.437 55.7809C460.457 57.4097 459.275 58.8305 457.889 60.0417C454.488 63.0113 450.075 64.4961 444.656 64.4961C439.552 64.4961 435.6 62.9553 432.803 59.8721C431.363 58.3185 430.368 56.5809 429.819 54.6657C429.272 52.7489 428.998 50.0929 428.998 46.6929V43.4513L429.04 34.3345V18.8641C428.637 18.8353 428.349 18.8209 428.176 18.8209C427.888 18.8209 427.31 18.8497 426.446 18.9073C425.725 18.9665 425.12 18.9937 424.629 18.9937C423.216 18.9937 422.51 18.4529 422.51 17.3713C422.51 16.3185 423.185 15.7921 424.544 15.7921C425.177 15.7921 425.624 15.8081 425.883 15.8353L429.04 16.0545V11.1665C437.576 8.08012 445.016 4.69292 451.36 1.00012" fill="white"/>
<path d="M451.36 1.00012L450.883 14.9713L450.84 16.3121C453.349 16.3121 455.627 16.2129 457.675 16.0081C458.021 15.9809 458.323 15.9665 458.582 15.9665C459.851 15.9665 460.486 16.5505 460.486 17.7201C460.486 18.7985 459.822 19.3393 458.496 19.3393C458.093 19.3393 457.587 19.3105 456.982 19.2545C454.705 19.0801 453.075 18.9937 452.096 18.9937H450.84L450.797 27.3745L450.945 44.1745L451.057 53.1649C451.057 55.2689 451.216 56.7393 451.536 57.5745C451.853 58.4129 452.405 58.8305 453.187 58.8305C454.232 58.8305 455.347 58.2241 456.536 57.0129C457.694 55.8017 458.608 54.3185 459.275 52.5585C459.88 50.8865 460.6 50.0497 461.437 50.0497C462.417 50.0497 462.907 50.5985 462.907 51.6945C462.907 52.7889 462.417 54.1521 461.437 55.7809C460.457 57.4097 459.275 58.8305 457.889 60.0417C454.488 63.0113 450.075 64.4961 444.656 64.4961C439.552 64.4961 435.6 62.9553 432.803 59.8721C431.363 58.3185 430.368 56.5809 429.819 54.6657C429.272 52.7489 428.998 50.0929 428.998 46.6929V43.4513L429.04 34.3345V18.8641C428.637 18.8353 428.349 18.8209 428.176 18.8209C427.888 18.8209 427.31 18.8497 426.446 18.9073C425.725 18.9665 425.12 18.9937 424.629 18.9937C423.216 18.9937 422.51 18.4529 422.51 17.3713C422.51 16.3185 423.185 15.7921 424.544 15.7921C425.177 15.7921 425.624 15.8081 425.883 15.8353L429.04 16.0545V11.1665C437.576 8.08012 445.016 4.69292 451.36 1.00012V1.00012Z" stroke="white" stroke-width="1.33333" stroke-miterlimit="10"/>
<path d="M500.957 37.7665C497.323 35.9489 494.512 35.0401 492.523 35.0401C490.848 35.0401 489.755 35.704 489.235 37.0304C488.946 37.7504 488.803 39.8416 488.803 43.3008V53.6385C488.83 55.9185 488.904 57.3008 489.018 57.7904C489.306 59.1184 490.288 59.7808 491.96 59.7808C493.286 59.7808 494.763 59.3857 496.394 58.5921C498.022 57.7985 499.515 56.7536 500.87 55.456L500.957 37.7665ZM500.957 34.6529V29.3745C500.928 25.7137 500.869 23.4624 500.782 22.6272C500.696 21.7904 500.435 21.0416 500.003 20.3776C498.963 18.7632 496.538 17.9553 492.725 17.9553C486.834 17.9553 482.285 19.8017 479.078 23.4929C477.779 24.9921 476.683 25.7408 475.787 25.7408C475.123 25.7408 474.546 25.5105 474.053 25.0497C473.563 24.5889 473.318 24.0545 473.318 23.4481C473.318 21.6321 475.466 19.7584 479.763 17.8272C483.856 15.9808 489.149 15.0576 495.635 15.0576C506.306 15.0576 513.83 16.672 518.214 19.9008C520.117 21.3152 521.357 22.9008 521.934 24.6608C522.51 26.4192 522.8 29.5185 522.8 33.9585V51.1313C522.683 54.3025 522.778 56.6881 523.08 58.2881C523.382 59.8897 524.067 61.6128 525.136 63.4576H500.914V58.9169C498.259 60.7329 495.629 62.1024 493.019 63.0256C490.408 63.9472 487.835 64.4097 485.298 64.4097C481.003 64.4097 477.181 63.1553 473.837 60.6465C469.483 57.3585 467.306 53.0929 467.306 47.8433C467.306 43.2017 469.066 39.4529 472.589 36.5985C476.688 33.2225 481.77 31.5376 487.835 31.5376C490.317 31.5376 492.51 31.7617 494.416 32.2081C496.323 32.6545 498.502 33.4689 500.957 34.6529" fill="white"/>
<path d="M500.957 37.7665C497.323 35.9489 494.512 35.0401 492.523 35.0401C490.848 35.0401 489.755 35.704 489.235 37.0304C488.946 37.7504 488.803 39.8416 488.803 43.3008V53.6385C488.83 55.9185 488.904 57.3008 489.018 57.7904C489.306 59.1184 490.288 59.7808 491.96 59.7808C493.286 59.7808 494.763 59.3857 496.394 58.5921C498.022 57.7985 499.515 56.7536 500.87 55.456L500.957 37.7665ZM500.957 34.6529V29.3745C500.928 25.7137 500.869 23.4624 500.782 22.6272C500.696 21.7904 500.435 21.0416 500.003 20.3776C498.963 18.7632 496.538 17.9553 492.725 17.9553C486.834 17.9553 482.285 19.8017 479.078 23.4929C477.779 24.9921 476.683 25.7408 475.787 25.7408C475.123 25.7408 474.546 25.5105 474.053 25.0497C473.563 24.5889 473.318 24.0545 473.318 23.4481C473.318 21.6321 475.466 19.7584 479.763 17.8272C483.856 15.9808 489.149 15.0576 495.635 15.0576C506.306 15.0576 513.83 16.672 518.214 19.9008C520.117 21.3152 521.357 22.9008 521.934 24.6608C522.51 26.4192 522.8 29.5185 522.8 33.9585V51.1313C522.683 54.3025 522.778 56.6881 523.08 58.2881C523.382 59.8897 524.067 61.6128 525.136 63.4576H500.914V58.9169C498.259 60.7329 495.629 62.1024 493.019 63.0256C490.408 63.9472 487.835 64.4097 485.298 64.4097C481.003 64.4097 477.181 63.1553 473.837 60.6465C469.483 57.3585 467.306 53.0929 467.306 47.8433C467.306 43.2017 469.066 39.4529 472.589 36.5985C476.688 33.2225 481.77 31.5376 487.835 31.5376C490.317 31.5376 492.51 31.7617 494.416 32.2081C496.323 32.6545 498.502 33.4689 500.957 34.6529V34.6529Z" stroke="white" stroke-width="1.33333" stroke-miterlimit="10"/>
<path d="M550.28 25.6129V54.504L550.237 57.2737C550.237 59.0609 550.459 60.2513 550.907 60.8401C551.355 61.4321 552.256 61.7265 553.609 61.7265C557.013 61.7265 560.358 60.6833 563.646 58.5921C566.933 56.5009 569.614 53.6976 571.689 50.1792C572.325 49.112 572.944 48.5792 573.55 48.5792C573.984 48.5792 574.379 48.7745 574.739 49.1633C575.101 49.5521 575.28 49.9633 575.28 50.3953C575.28 51.4337 574.443 52.8976 572.771 54.7856C571.099 56.6736 569.153 58.3696 566.933 59.8688C562.405 62.8944 557.56 64.4097 552.4 64.4097C545.334 64.4097 539.494 62.2193 534.88 57.8353C529.633 52.9041 527.008 46.8641 527.008 39.7121C527.008 32.3313 529.777 26.1889 535.315 21.2865C539.957 17.1345 545.68 15.0576 552.486 15.0576C557.905 15.0576 562.649 16.3408 566.715 18.9072C568.446 20.0032 569.859 21.1777 570.955 22.4321C572.049 23.6865 572.6 24.7457 572.6 25.6129C572.6 26.0449 572.44 26.4113 572.121 26.7153C571.805 27.0161 571.416 27.1681 570.955 27.1681C570.349 27.1681 569.585 26.4769 568.662 25.0929C567.336 23.1617 565.246 21.4817 562.39 20.0545C559.537 18.6257 556.84 17.9121 554.302 17.9121C552.6 17.9121 551.505 18.3888 551.016 19.3392C550.525 20.2912 550.28 22.3825 550.28 25.6129" fill="white"/>
<path d="M550.28 25.6129V54.504L550.237 57.2737C550.237 59.0609 550.459 60.2513 550.907 60.8401C551.355 61.4321 552.256 61.7265 553.609 61.7265C557.013 61.7265 560.358 60.6833 563.646 58.5921C566.933 56.5009 569.614 53.6976 571.689 50.1792C572.325 49.112 572.944 48.5792 573.55 48.5792C573.984 48.5792 574.379 48.7745 574.739 49.1633C575.101 49.5521 575.28 49.9633 575.28 50.3953C575.28 51.4337 574.443 52.8976 572.771 54.7856C571.099 56.6736 569.153 58.3696 566.933 59.8688C562.405 62.8944 557.56 64.4097 552.4 64.4097C545.334 64.4097 539.494 62.2193 534.88 57.8353C529.633 52.9041 527.008 46.8641 527.008 39.7121C527.008 32.3313 529.777 26.1889 535.315 21.2865C539.957 17.1345 545.68 15.0576 552.486 15.0576C557.905 15.0576 562.649 16.3408 566.715 18.9072C568.446 20.0032 569.859 21.1777 570.955 22.4321C572.049 23.6865 572.6 24.7457 572.6 25.6129C572.6 26.0449 572.44 26.4113 572.121 26.7153C571.805 27.0161 571.416 27.1681 570.955 27.1681C570.349 27.1681 569.585 26.4769 568.662 25.0929C567.336 23.1617 565.246 21.4817 562.39 20.0545C559.537 18.6257 556.84 17.9121 554.302 17.9121C552.6 17.9121 551.505 18.3888 551.016 19.3392C550.525 20.2912 550.28 22.3825 550.28 25.6129Z" stroke="white" stroke-width="1.33333" stroke-miterlimit="10"/>
<path d="M603.17 22.3247C605.938 20.4495 608.202 19.0799 609.96 18.2159C614.287 16.1103 618.568 15.0575 622.808 15.0575C625.864 15.0575 628.618 15.6063 631.069 16.7007C633.52 17.7983 635.336 19.2959 636.519 21.1999C637.931 23.4783 638.639 27.6607 638.639 33.7423L638.552 40.1871L638.466 48.7087L638.811 63.4575H616.579L616.754 36.7263L616.491 23.0591C616.205 21.5599 615.143 20.8112 613.303 20.8112C611.951 20.8112 610.435 21.2207 608.755 22.0431C607.072 22.8639 605.211 24.1119 603.17 25.7839L603.085 36.6415L603.232 55.4559L603.344 63.4575H581.112L581.199 45.2063V24.3999L581.067 6.40635L581.112 4.41752H603.17V5.62873L603.213 13.0239L603.17 17.6096V22.3247" fill="white"/>
<path d="M603.17 22.3247C605.938 20.4495 608.202 19.0799 609.96 18.2159C614.287 16.1103 618.568 15.0575 622.808 15.0575C625.864 15.0575 628.618 15.6063 631.069 16.7007C633.52 17.7983 635.336 19.2959 636.519 21.1999C637.931 23.4783 638.639 27.6607 638.639 33.7423L638.552 40.1871L638.466 48.7087L638.811 63.4575H616.579L616.754 36.7263L616.491 23.0591C616.205 21.5599 615.143 20.8112 613.303 20.8112C611.951 20.8112 610.435 21.2207 608.755 22.0431C607.072 22.8639 605.211 24.1119 603.17 25.7839L603.085 36.6415L603.232 55.4559L603.344 63.4575H581.112L581.199 45.2063V24.3999L581.067 6.40635L581.112 4.41752H603.17V5.62873L603.213 13.0239L603.17 17.6096V22.3247Z" stroke="white" stroke-width="1.33333" stroke-miterlimit="10"/>
<path d="M675.238 38.3713V25.7681C675.181 23.0625 675.123 21.4465 675.066 20.9121C675.008 20.3809 674.806 19.8848 674.459 19.4224C673.653 18.3008 672.008 17.7392 669.53 17.7392C666.992 17.7392 665.405 18.3873 664.771 19.6817C664.368 20.4593 664.165 22.4865 664.165 25.7681V38.3713L669.442 38.544L675.238 38.3713ZM664.165 41.2256V54.6337C664.165 57.2289 664.325 58.8737 664.642 59.5649C665.248 60.8913 666.675 61.5553 668.925 61.5553C672.269 61.5553 675.578 60.6401 678.85 58.8081C682.122 56.9777 684.955 54.4464 687.35 51.2176C688.128 50.1504 688.689 49.4736 689.037 49.184C689.382 48.896 689.757 48.7521 690.16 48.7521C690.651 48.7521 691.054 48.9329 691.373 49.2929C691.688 49.6545 691.848 50.1089 691.848 50.6545C691.848 51.8657 690.88 53.496 688.95 55.5424C686.413 58.1664 683.262 60.3008 679.498 61.944C675.736 63.5888 672.066 64.4097 668.491 64.4097C662.349 64.4097 656.928 62.3488 652.227 58.224C649.488 55.8016 647.384 52.8176 645.912 49.2704C644.616 46.1584 643.966 43.0433 643.966 39.9281C643.966 36.9297 644.544 33.9248 645.698 30.9088C646.85 27.896 648.435 25.2944 650.454 23.1024C652.79 20.536 655.558 18.5473 658.76 17.1345C661.902 15.7489 665.189 15.0576 668.621 15.0576C673.955 15.0576 678.786 16.6289 683.11 19.7729C689.858 24.6737 693.203 31.7808 693.146 41.096H683.067L670.091 41.1392L664.165 41.2256" fill="white"/>
<path d="M675.238 38.3713V25.7681C675.181 23.0625 675.123 21.4465 675.066 20.9121C675.008 20.3809 674.806 19.8848 674.459 19.4224C673.653 18.3008 672.008 17.7392 669.53 17.7392C666.992 17.7392 665.405 18.3873 664.771 19.6817C664.368 20.4593 664.165 22.4865 664.165 25.7681V38.3713L669.442 38.544L675.238 38.3713ZM664.165 41.2256V54.6337C664.165 57.2289 664.325 58.8737 664.642 59.5649C665.248 60.8913 666.675 61.5553 668.925 61.5553C672.269 61.5553 675.578 60.6401 678.85 58.8081C682.122 56.9777 684.955 54.4464 687.35 51.2176C688.128 50.1504 688.689 49.4736 689.037 49.184C689.382 48.896 689.757 48.7521 690.16 48.7521C690.651 48.7521 691.054 48.9329 691.373 49.2929C691.688 49.6545 691.848 50.1089 691.848 50.6545C691.848 51.8657 690.88 53.496 688.95 55.5424C686.413 58.1664 683.262 60.3008 679.498 61.944C675.736 63.5888 672.066 64.4097 668.491 64.4097C662.349 64.4097 656.928 62.3488 652.227 58.224C649.488 55.8016 647.384 52.8176 645.912 49.2704C644.616 46.1584 643.966 43.0433 643.966 39.9281C643.966 36.9297 644.544 33.9248 645.698 30.9088C646.85 27.896 648.435 25.2944 650.454 23.1024C652.79 20.536 655.558 18.5473 658.76 17.1345C661.902 15.7489 665.189 15.0576 668.621 15.0576C673.955 15.0576 678.786 16.6289 683.11 19.7729C689.858 24.6737 693.203 31.7808 693.146 41.096H683.067L670.091 41.1392L664.165 41.2256Z" stroke="white" stroke-width="1.33333" stroke-miterlimit="10"/>
<path d="M918.449 28.8403C910.74 35.2547 907.759 43.0435 909.187 52.3395C911.587 67.9731 922.03 76.6723 936.027 81.6515C958.041 89.4819 980.166 87.5315 1002.03 80.9587C1018.31 76.0659 1034.44 70.6435 1046.62 57.7363C1048.78 55.4467 1050.42 57.0451 1052.4 58.5683C1057.5 62.4963 1062.51 66.7635 1068.18 69.6803C1083.2 77.3955 1099.2 82.3795 1115.92 84.9843C1132.47 87.5603 1148.78 87.0179 1164.35 80.3123C1178.49 74.2275 1187.25 63.8947 1187.74 47.9027C1188 39.4611 1183.6 31.3203 1177.15 27.8227C1177.98 30.5907 1178.97 33.1779 1179.51 35.8563C1182.6 50.9923 1171.88 60.7891 1157.3 55.9043C1152.04 54.1411 1146.96 51.6099 1142.13 48.8547C1129.07 41.4099 1116.49 33.0787 1103.17 26.1683C1085.2 16.8499 1067.5 16.8979 1051.53 31.0979C1049.16 33.2083 1047.46 32.5268 1045.08 31.0324C1040.09 27.89 1035.11 24.4003 1029.62 22.4547C1015.08 17.2995 1001.64 21.7219 989.049 29.0579C977.571 35.7459 966.593 43.2915 955.044 49.8499C949.196 53.1699 942.782 56.0403 936.26 57.5219C925.214 60.0355 917.267 53.5923 916.694 42.2707C916.481 38.0675 917.756 33.7907 918.449 28.8403ZM1049.62 64.8771C1049.57 64.8467 1049.53 64.8179 1049.49 64.7859C1023.98 83.9123 991.695 93.8035 959.849 92.2531C943.71 91.4675 926.905 87.4067 915.153 76.3171C907.433 69.0323 902.663 58.2195 903.019 47.5587C903.387 36.4675 910.124 24.9892 920.764 20.9556C926.249 18.8772 932.785 19.1699 937.609 22.5027C939.001 23.4627 940.324 25.3235 939.332 26.6899C938.55 27.7699 936.948 27.6372 935.619 27.5956C930.951 27.4484 926.295 30.0099 923.924 34.0323C921.555 38.0531 921.566 43.3683 923.956 47.3779C925.099 49.2963 926.798 50.9491 928.907 51.6803C932.321 52.8659 936.047 51.4867 939.364 50.0499C949.174 45.7987 958.691 40.8771 967.83 35.3299C981.996 26.7347 996.02 16.3491 1012.49 14.5699C1022.67 13.4691 1033.19 15.9123 1041.84 21.3859C1043.36 22.3427 1044.87 23.4131 1046.63 23.7395C1050.31 24.4227 1053.65 21.7555 1056.8 19.7395C1072.3 9.84034 1093.02 14.0659 1109.38 22.4547C1125.74 30.8419 1140.2 42.9907 1157.47 49.3011C1161.82 50.8899 1167.14 51.9427 1170.72 49.0083C1173.73 46.5459 1174.31 42.1459 1173.84 38.2867C1173.17 32.8611 1169.79 26.8708 1164.33 26.5988C1161.83 26.4724 1158.7 27.3571 1157.27 25.2995C1155.49 22.7267 1159.06 19.7123 1162.12 19.0803C1176.61 16.0931 1191.4 28.5219 1193.65 43.1411C1195.89 57.7603 1187.55 72.6307 1175.43 81.1011C1163.3 89.5731 1148.05 92.4627 1133.26 92.5379C1103.42 92.6899 1074 82.0819 1049.62 64.8771Z" fill="white"/>
<path d="M149.195 46.6355C151.163 46.6515 153.005 46.9011 154.415 47.3251C156.219 47.8691 157.992 48.7091 159.266 50.0995C161.942 53.0259 161.587 58.0803 158.741 60.8435C156.464 63.0531 153.118 63.7795 149.946 63.8515C147.31 63.9107 144.619 63.5699 142.229 62.4547C139.84 61.3395 137.77 59.3859 136.886 56.9011C134.163 49.2451 142.426 46.5731 149.195 46.6355" fill="white"/>
<path d="M149.195 46.6355C151.163 46.6515 153.005 46.9011 154.415 47.3251C156.219 47.8691 157.992 48.7091 159.266 50.0995C161.942 53.0259 161.587 58.0803 158.741 60.8435C156.464 63.0531 153.118 63.7795 149.946 63.8515C147.31 63.9107 144.619 63.5699 142.229 62.4547C139.84 61.3395 137.77 59.3859 136.886 56.9011C134.163 49.2451 142.426 46.5731 149.195 46.6355V46.6355Z" stroke="white" stroke-width="1.33333" stroke-miterlimit="10"/>
<path d="M65.4983 2.54434L74.9677 34.9428L79.2677 49.2948L83.1333 62.298L83.6546 63.9491H57.2172L48.8965 33.2052L30.9258 60.21L12.5002 34.5412C10.7215 40.8052 8.78147 48.4899 6.68211 57.5955C5.92403 61.0755 5.3778 63.1427 5.04516 63.7955C4.71204 64.4499 4.03892 64.7764 3.0258 64.7764C1.7514 64.7764 1.11523 64.3411 1.11523 63.4723C1.11523 63.2099 1.52148 61.746 2.33396 59.0788L5.03395 49.8164L9.73587 33.8116L18.9234 2.54434L42.7327 37.0564L65.4983 2.54434Z" fill="white"/>
<path d="M65.4983 2.54434L74.9677 34.9428L79.2677 49.2948L83.1333 62.298L83.6546 63.9491H57.2172L48.8965 33.2052L30.9258 60.21L12.5002 34.5412C10.7215 40.8052 8.78147 48.4899 6.68211 57.5955C5.92403 61.0755 5.3778 63.1427 5.04516 63.7955C4.71204 64.4499 4.03892 64.7764 3.0258 64.7764C1.7514 64.7764 1.11523 64.3411 1.11523 63.4723C1.11523 63.2099 1.52148 61.746 2.33396 59.0788L5.03395 49.8164L9.73587 33.8116L18.9234 2.54434L42.7327 37.0564L65.4983 2.54434Z" stroke="white" stroke-width="1.33333" stroke-miterlimit="10"/>
<path d="M111.923 29.9426L111.835 46.6402L112.008 63.949H89.6558L89.7089 61.557L89.7614 52.6866L89.917 36.7266L89.7089 18.9826L89.6558 16.461H111.965V25.4194C115.291 21.8818 117.608 19.6498 118.909 18.7218C121.918 16.6066 124.754 15.5474 127.416 15.5474C129.035 15.5474 130.374 15.8962 131.429 16.5906C132.485 17.2866 133.013 18.1714 133.013 19.2434C133.013 20.085 132.694 20.781 132.058 21.3314C131.422 21.8818 130.626 22.157 129.672 22.157C129.064 22.157 128.384 21.9842 127.632 21.6354C126.358 21.0258 125.302 20.7218 124.464 20.7218C122.381 20.7218 120.368 21.4322 118.432 22.853C116.493 24.2754 114.323 26.637 111.923 29.9426" fill="white"/>
<path d="M111.923 29.9426L111.835 46.6402L112.008 63.949H89.6558L89.7089 61.557L89.7614 52.6866L89.917 36.7266L89.7089 18.9826L89.6558 16.461H111.965V25.4194C115.291 21.8818 117.608 19.6498 118.909 18.7218C121.918 16.6066 124.754 15.5474 127.416 15.5474C129.035 15.5474 130.374 15.8962 131.429 16.5906C132.485 17.2866 133.013 18.1714 133.013 19.2434C133.013 20.085 132.694 20.781 132.058 21.3314C131.422 21.8818 130.626 22.157 129.672 22.157C129.064 22.157 128.384 21.9842 127.632 21.6354C126.358 21.0258 125.302 20.7218 124.464 20.7218C122.381 20.7218 120.368 21.4322 118.432 22.853C116.493 24.2754 114.323 26.637 111.923 29.9426V29.9426Z" stroke="white" stroke-width="1.33333" stroke-miterlimit="10"/>
<path d="M148.232 45.9008C152.088 45.9008 155.191 46.7568 157.538 48.4672C159.887 50.1776 161.061 52.4688 161.061 55.3376C161.061 58.2672 159.872 60.6512 157.496 62.4912C155.117 64.3328 152.031 65.2544 148.232 65.2544C143.448 65.2544 139.867 63.92 137.49 61.2528C136.099 59.688 135.403 57.8608 135.403 55.7728C135.403 52.816 136.563 50.4464 138.883 48.664C141.202 46.88 144.319 45.96 148.232 45.9008Z" fill="white"/>
<path d="M148.232 45.9008C152.088 45.9008 155.191 46.7568 157.538 48.4672C159.887 50.1776 161.061 52.4688 161.061 55.3376C161.061 58.2672 159.872 60.6512 157.496 62.4912C155.117 64.3328 152.031 65.2544 148.232 65.2544C143.448 65.2544 139.867 63.92 137.49 61.2528C136.099 59.688 135.403 57.8608 135.403 55.7728C135.403 52.816 136.563 50.4464 138.883 48.664C141.202 46.88 144.319 45.96 148.232 45.9008Z" stroke="white" stroke-width="1.33333" stroke-miterlimit="10"/>
</svg>
