<svg width="857" height="116" viewBox="0 0 857 116" fill="none" xmlns="http://www.w3.org/2000/svg">
<path d="M286.885 101H1.88477V95H286.885V101Z" fill="white"/>
<path d="M286.885 101H1.88477V95H286.885V101Z" stroke="white" stroke-width="1.33333" stroke-miterlimit="10"/>
<path d="M855.885 102H570.885V96H855.885V102Z" fill="white"/>
<path d="M855.885 102H570.885V96H855.885V102Z" stroke="white" stroke-width="1.33333" stroke-miterlimit="10"/>
<path d="M297.457 87.7623H300.526L307.744 105.391H307.992L315.21 87.7623H318.279V109H315.874V92.8644H315.666L309.029 109H306.707L300.07 92.8644H299.862V109H297.457V87.7623ZM323.436 109V87.7623H336.253V90.0437H326.008V97.2197H335.589V99.5011H326.008V106.719H336.419V109H323.436ZM357.729 87.7623V109H355.24L343.668 92.3251H343.46V109H340.888V87.7623H343.377L354.992 104.479H355.199V87.7623H357.729ZM374.49 93.0718C374.365 92.0209 373.861 91.2052 372.976 90.6244C372.091 90.0437 371.005 89.7534 369.72 89.7534C368.779 89.7534 367.957 89.9055 367.251 90.2096C366.553 90.5138 366.007 90.9321 365.613 91.4644C365.226 91.9967 365.032 92.6016 365.032 93.2792C365.032 93.846 365.167 94.3334 365.437 94.7413C365.713 95.1423 366.066 95.4776 366.494 95.7472C366.923 96.0099 367.372 96.2277 367.843 96.4005C368.313 96.5664 368.745 96.7012 369.139 96.8049L371.296 97.3857C371.849 97.5308 372.464 97.7313 373.142 97.9871C373.826 98.2429 374.479 98.592 375.102 99.0345C375.731 99.47 376.249 100.03 376.657 100.714C377.065 101.399 377.269 102.239 377.269 103.234C377.269 104.382 376.968 105.419 376.367 106.345C375.772 107.272 374.901 108.008 373.753 108.554C372.613 109.1 371.227 109.373 369.595 109.373C368.074 109.373 366.757 109.128 365.644 108.637C364.538 108.146 363.667 107.462 363.031 106.584C362.402 105.706 362.046 104.686 361.963 103.525H364.618C364.687 104.327 364.956 104.99 365.426 105.516C365.903 106.034 366.505 106.421 367.231 106.677C367.964 106.926 368.752 107.05 369.595 107.05C370.577 107.05 371.458 106.891 372.239 106.573C373.021 106.249 373.639 105.799 374.096 105.225C374.552 104.645 374.78 103.967 374.78 103.193C374.78 102.488 374.583 101.914 374.189 101.471C373.795 101.029 373.276 100.669 372.633 100.393C371.991 100.116 371.296 99.8744 370.549 99.667L367.936 98.9204C366.277 98.4434 364.963 97.7624 363.995 96.8775C363.027 95.9926 362.544 94.8346 362.544 93.4036C362.544 92.2145 362.865 91.1775 363.508 90.2926C364.158 89.4008 365.029 88.7095 366.121 88.2186C367.22 87.7209 368.447 87.472 369.802 87.472C371.171 87.472 372.388 87.7174 373.453 88.2082C374.517 88.6922 375.361 89.3559 375.983 90.1993C376.612 91.0427 376.944 92.0002 376.978 93.0718H374.49ZM389.71 109V87.7623H392.282V97.2197H403.606V87.7623H406.178V109H403.606V99.5011H392.282V109H389.71ZM412.197 109H409.501L417.299 87.7623H419.954L427.752 109H425.056L418.71 91.1222H418.544L412.197 109ZM413.193 100.704H424.061V102.985H413.193V100.704ZM433.632 87.7623V109H431.06V87.7623H433.632ZM438.789 109V87.7623H445.965C447.624 87.7623 448.986 88.0458 450.05 88.6127C451.115 89.1727 451.903 89.9435 452.415 90.9252C452.926 91.9069 453.182 93.0234 453.182 94.2747C453.182 95.526 452.926 96.6356 452.415 97.6034C451.903 98.5713 451.118 99.3317 450.061 99.8848C449.003 100.431 447.651 100.704 446.006 100.704H440.199V98.3812H445.923C447.057 98.3812 447.969 98.2153 448.661 97.8834C449.359 97.5516 449.864 97.0815 450.175 96.4731C450.493 95.8578 450.652 95.125 450.652 94.2747C450.652 93.4243 450.493 92.6812 450.175 92.0451C449.857 91.4091 449.349 90.9183 448.65 90.5726C447.952 90.22 447.029 90.0437 445.882 90.0437H441.36V109H438.789ZM448.785 99.4596L454.012 109H451.025L445.882 99.4596H448.785ZM477.295 93.0718C477.17 92.0209 476.666 91.2052 475.781 90.6244C474.896 90.0437 473.81 89.7534 472.525 89.7534C471.584 89.7534 470.762 89.9055 470.057 90.2096C469.358 90.5138 468.812 90.9321 468.418 91.4644C468.031 91.9967 467.837 92.6016 467.837 93.2792C467.837 93.846 467.972 94.3334 468.242 94.7413C468.518 95.1423 468.871 95.4776 469.3 95.7472C469.728 96.0099 470.178 96.2277 470.648 96.4005C471.118 96.5664 471.55 96.7012 471.944 96.8049L474.101 97.3857C474.654 97.5308 475.269 97.7313 475.947 97.9871C476.631 98.2429 477.284 98.592 477.907 99.0345C478.536 99.47 479.054 100.03 479.462 100.714C479.87 101.399 480.074 102.239 480.074 103.234C480.074 104.382 479.773 105.419 479.172 106.345C478.577 107.272 477.706 108.008 476.559 108.554C475.418 109.1 474.032 109.373 472.4 109.373C470.879 109.373 469.562 109.128 468.449 108.637C467.343 108.146 466.472 107.462 465.836 106.584C465.207 105.706 464.851 104.686 464.768 103.525H467.423C467.492 104.327 467.761 104.99 468.231 105.516C468.708 106.034 469.31 106.421 470.036 106.677C470.769 106.926 471.557 107.05 472.4 107.05C473.382 107.05 474.263 106.891 475.045 106.573C475.826 106.249 476.444 105.799 476.901 105.225C477.357 104.645 477.585 103.967 477.585 103.193C477.585 102.488 477.388 101.914 476.994 101.471C476.6 101.029 476.082 100.669 475.439 100.393C474.796 100.116 474.101 99.8744 473.354 99.667L470.741 98.9204C469.082 98.4434 467.768 97.7624 466.8 96.8775C465.833 95.9926 465.349 94.8346 465.349 93.4036C465.349 92.2145 465.67 91.1775 466.313 90.2926C466.963 89.4008 467.834 88.7095 468.926 88.2186C470.025 87.7209 471.253 87.472 472.608 87.472C473.976 87.472 475.193 87.7174 476.258 88.2082C477.322 88.6922 478.166 89.3559 478.788 90.1993C479.417 91.0427 479.749 92.0002 479.784 93.0718H477.295ZM485.173 109H482.477L490.275 87.7623H492.93L500.728 109H498.032L491.686 91.1222H491.52L485.173 109ZM486.169 100.704H497.037V102.985H486.169V100.704ZM504.036 109V87.7623H506.608V106.719H516.48V109H504.036ZM537.555 98.3812C537.555 100.621 537.15 102.557 536.341 104.188C535.532 105.82 534.423 107.078 533.013 107.963C531.602 108.848 529.991 109.29 528.18 109.29C526.369 109.29 524.758 108.848 523.348 107.963C521.937 107.078 520.828 105.82 520.019 104.188C519.21 102.557 518.806 100.621 518.806 98.3812C518.806 96.1413 519.21 94.2055 520.019 92.574C520.828 90.9425 521.937 89.6842 523.348 88.7993C524.758 87.9144 526.369 87.472 528.18 87.472C529.991 87.472 531.602 87.9144 533.013 88.7993C534.423 89.6842 535.532 90.9425 536.341 92.574C537.15 94.2055 537.555 96.1413 537.555 98.3812ZM535.066 98.3812C535.066 96.5422 534.758 94.9902 534.143 93.7251C533.534 92.4599 532.708 91.5024 531.664 90.8526C530.627 90.2027 529.466 89.8778 528.18 89.8778C526.894 89.8778 525.729 90.2027 524.685 90.8526C523.648 91.5024 522.822 92.4599 522.207 93.7251C521.599 94.9902 521.294 96.5422 521.294 98.3812C521.294 100.22 521.599 101.772 522.207 103.037C522.822 104.302 523.648 105.26 524.685 105.91C525.729 106.56 526.894 106.885 528.18 106.885C529.466 106.885 530.627 106.56 531.664 105.91C532.708 105.26 533.534 104.302 534.143 103.037C534.758 101.772 535.066 100.22 535.066 98.3812ZM558.72 87.7623V109H556.231L544.658 92.3251H544.451V109H541.879V87.7623H544.368L555.982 104.479H556.189V87.7623H558.72Z" fill="white"/>
<path d="M743.597 4.77289L743.342 34.8657L743.597 60.4193C745.065 60.6161 746.281 60.7169 747.243 60.7169C750.013 60.7169 752.853 60.2209 755.763 59.2289C758.672 58.2401 761.245 56.8945 763.477 55.1985C764.92 54.0945 766.409 52.6225 767.95 50.7825C769.488 48.9441 770.725 47.1489 771.658 45.3921C772.197 44.3745 772.773 43.8641 773.397 43.8641C774.328 43.8641 774.795 44.2609 774.795 45.0545C774.795 45.9009 774.094 47.3377 772.694 49.3617C771.293 51.3857 769.76 53.2033 768.089 54.8161C764.467 58.2961 760.208 60.7169 755.313 62.0737C752.369 62.8929 749.541 63.3057 746.822 63.3057C742.862 63.3057 738.885 62.4561 734.896 60.7585C728.501 58.0689 723.633 53.8129 720.294 47.9809C717.52 43.1425 716.134 38.0065 716.134 32.5745C716.134 27.0289 717.577 21.7921 720.464 16.8689C723.547 11.6337 727.905 7.62886 733.537 4.85606C737.64 2.87686 742.07 1.88649 746.822 1.88649C754.973 1.88649 762.019 4.64488 767.962 10.1633C770.79 12.7937 772.206 14.6897 772.206 15.8497C772.206 16.1633 772.064 16.4465 771.782 16.6993C771.499 16.9537 771.187 17.0817 770.849 17.0817C770.285 17.0817 769.605 16.5297 768.816 15.4257C766.385 12.0577 763.177 9.39046 759.195 7.42406C755.209 5.45766 751 4.47527 746.565 4.47527C745.52 4.47527 744.529 4.57449 743.597 4.77289" fill="white"/>
<path d="M743.597 4.77289L743.342 34.8657L743.597 60.4193C745.065 60.6161 746.281 60.7169 747.243 60.7169C750.013 60.7169 752.853 60.2209 755.763 59.2289C758.672 58.2401 761.245 56.8945 763.477 55.1985C764.92 54.0945 766.409 52.6225 767.95 50.7825C769.488 48.9441 770.725 47.1489 771.658 45.3921C772.197 44.3745 772.773 43.8641 773.397 43.8641C774.328 43.8641 774.795 44.2609 774.795 45.0545C774.795 45.9009 774.094 47.3377 772.694 49.3617C771.293 51.3857 769.76 53.2033 768.089 54.8161C764.467 58.2961 760.208 60.7169 755.313 62.0737C752.369 62.8929 749.541 63.3057 746.822 63.3057C742.862 63.3057 738.885 62.4561 734.896 60.7585C728.501 58.0689 723.633 53.8129 720.294 47.9809C717.52 43.1425 716.134 38.0065 716.134 32.5745C716.134 27.0289 717.577 21.7921 720.464 16.8689C723.547 11.6337 727.905 7.62886 733.537 4.85606C737.64 2.87686 742.07 1.88649 746.822 1.88649C754.973 1.88649 762.019 4.64488 767.962 10.1633C770.79 12.7937 772.206 14.6897 772.206 15.8497C772.206 16.1633 772.064 16.4465 771.782 16.6993C771.499 16.9537 771.187 17.0817 770.849 17.0817C770.285 17.0817 769.605 16.5297 768.816 15.4257C766.385 12.0577 763.177 9.39046 759.195 7.42406C755.209 5.45766 751 4.47527 746.565 4.47527C745.52 4.47527 744.529 4.57449 743.597 4.77289V4.77289Z" stroke="white" stroke-width="1.33333" stroke-miterlimit="10"/>
<path d="M801.427 16.7825L801.3 59.6129C802.176 59.6689 802.785 59.6977 803.125 59.6977C807.057 59.6977 810.821 58.5937 814.416 56.3825C817.867 54.2289 820.456 51.3697 822.182 47.8001C823.542 44.9681 824.22 41.8529 824.22 38.4529C824.22 31.6273 821.702 26.0897 816.664 21.8401C812.59 18.4129 808.16 16.6993 803.379 16.6993C802.982 16.6993 802.332 16.7265 801.427 16.7825V16.7825ZM802.657 14.0673C807.213 14.0673 811.529 15.3265 815.603 17.8449C819.366 20.1665 822.24 23.3345 824.22 27.3521C825.974 30.8897 826.852 34.6401 826.852 38.6017C826.852 41.3185 826.334 44.0497 825.302 46.7937C824.27 49.5393 822.862 51.9729 821.08 54.0945C818.59 57.0081 815.547 59.2033 811.953 60.6721C809.009 61.8897 805.941 62.4993 802.742 62.4993C797.395 62.4993 792.584 60.9137 788.31 57.7441C784.972 55.3105 782.438 52.1841 780.712 48.3649C779.27 45.1377 778.547 41.7281 778.547 38.1345C778.547 31.1169 781.096 25.2865 786.187 20.6465C790.971 16.3457 796.461 14.1521 802.657 14.0673" fill="white"/>
<path d="M801.427 16.7825L801.3 59.6129C802.176 59.6689 802.785 59.6977 803.125 59.6977C807.057 59.6977 810.821 58.5937 814.416 56.3825C817.867 54.2289 820.456 51.3697 822.182 47.8001C823.542 44.9681 824.22 41.8529 824.22 38.4529C824.22 31.6273 821.702 26.0897 816.664 21.8401C812.59 18.4129 808.16 16.6993 803.379 16.6993C802.982 16.6993 802.332 16.7265 801.427 16.7825V16.7825ZM802.657 14.0673C807.213 14.0673 811.529 15.3265 815.603 17.8449C819.366 20.1665 822.24 23.3345 824.22 27.3521C825.974 30.8897 826.852 34.6401 826.852 38.6017C826.852 41.3185 826.334 44.0497 825.302 46.7937C824.27 49.5393 822.862 51.9729 821.08 54.0945C818.59 57.0081 815.547 59.2033 811.953 60.6721C809.009 61.8897 805.941 62.4993 802.742 62.4993C797.395 62.4993 792.584 60.9137 788.31 57.7441C784.972 55.3105 782.438 52.1841 780.712 48.3649C779.27 45.1377 778.547 41.7281 778.547 38.1345C778.547 31.1169 781.096 25.2865 786.187 20.6465C790.971 16.3457 796.461 14.1521 802.657 14.0673V14.0673Z" stroke="white" stroke-width="1.33333" stroke-miterlimit="10"/>
<path d="M241.92 2.38575L251.339 34.6082L255.617 48.8818L259.46 61.8146L259.979 63.4577H233.683L225.409 32.8802L207.535 59.7377L189.209 34.2098C187.44 40.4386 185.51 48.0817 183.422 57.1377C182.667 60.6001 182.125 62.6546 181.794 63.3058C181.462 63.9538 180.792 64.2786 179.785 64.2786C178.518 64.2786 177.885 63.8465 177.885 62.9825C177.885 62.7233 178.289 61.2674 179.097 58.6146L181.782 49.4002L186.459 33.485L195.597 2.38575L219.278 36.7106L241.92 2.38575Z" fill="white"/>
<path d="M241.92 2.38575L251.339 34.6082L255.617 48.8818L259.46 61.8146L259.979 63.4577H233.683L225.409 32.8802L207.535 59.7377L189.209 34.2098C187.44 40.4386 185.51 48.0817 183.422 57.1377C182.667 60.6001 182.125 62.6546 181.794 63.3058C181.462 63.9538 180.792 64.2786 179.785 64.2786C178.518 64.2786 177.885 63.8465 177.885 62.9825C177.885 62.7233 178.289 61.2674 179.097 58.6146L181.782 49.4002L186.459 33.485L195.597 2.38575L219.278 36.7106L241.92 2.38575Z" stroke="white" stroke-width="1.33333" stroke-miterlimit="10"/>
<path d="M286.32 17.8272L286.19 61.4688C287.083 61.5264 287.704 61.5553 288.05 61.5553C292.058 61.5553 295.893 60.4288 299.555 58.1776C303.072 55.984 305.71 53.0689 307.47 49.4321C308.854 46.5473 309.547 43.3712 309.547 39.9072C309.547 32.9504 306.981 27.3088 301.848 22.9792C297.694 19.4864 293.182 17.7392 288.31 17.7392C287.906 17.7392 287.242 17.768 286.32 17.8272V17.8272ZM287.573 15.0576C292.216 15.0576 296.613 16.3408 300.766 18.9072C304.6 21.272 307.528 24.5009 309.547 28.5969C311.334 32.2001 312.229 36.0208 312.229 40.0576C312.229 42.8272 311.702 45.6097 310.65 48.4065C309.598 51.2033 308.163 53.6833 306.347 55.8465C303.808 58.8161 300.709 61.0512 297.048 62.5488C294.048 63.7888 290.92 64.4097 287.661 64.4097C282.211 64.4097 277.309 62.7953 272.955 59.5649C269.552 57.0865 266.971 53.8993 265.212 50.0065C263.742 46.7185 263.007 43.2448 263.007 39.5808C263.007 32.4304 265.602 26.4929 270.792 21.7617C275.664 17.3793 281.259 15.144 287.573 15.0576" fill="white"/>
<path d="M286.32 17.8272L286.19 61.4688C287.083 61.5264 287.704 61.5553 288.05 61.5553C292.058 61.5553 295.893 60.4288 299.555 58.1776C303.072 55.984 305.71 53.0689 307.47 49.4321C308.854 46.5473 309.547 43.3712 309.547 39.9072C309.547 32.9504 306.981 27.3088 301.848 22.9792C297.694 19.4864 293.182 17.7392 288.31 17.7392C287.906 17.7392 287.242 17.768 286.32 17.8272V17.8272ZM287.573 15.0576C292.216 15.0576 296.613 16.3408 300.766 18.9072C304.6 21.272 307.528 24.5009 309.547 28.5969C311.334 32.2001 312.229 36.0208 312.229 40.0576C312.229 42.8272 311.702 45.6097 310.65 48.4065C309.598 51.2033 308.163 53.6833 306.347 55.8465C303.808 58.8161 300.709 61.0512 297.048 62.5488C294.048 63.7888 290.92 64.4097 287.661 64.4097C282.211 64.4097 277.309 62.7953 272.955 59.5649C269.552 57.0865 266.971 53.8993 265.212 50.0065C263.742 46.7185 263.007 43.2448 263.007 39.5808C263.007 32.4304 265.602 26.4929 270.792 21.7617C275.664 17.3793 281.259 15.144 287.573 15.0576V15.0576Z" stroke="white" stroke-width="1.33333" stroke-miterlimit="10"/>
<path d="M375.853 16.224L375.725 50.2224L375.853 63.4576H353.709V57.3585C350.052 59.8689 346.717 61.6689 343.709 62.7665C340.698 63.8609 337.551 64.4097 334.269 64.4097C328.25 64.4097 323.887 62.6209 321.179 59.0465C320.171 57.7201 319.472 56.2145 319.083 54.5265C318.693 52.8385 318.501 50.4385 318.501 47.3265L318.588 37.2033L318.631 30.4545L318.413 16.224H340.56L340.301 37.9392L340.343 46.1585L340.386 51.6945C340.386 55.0097 340.589 57 340.992 57.6624C341.482 58.4128 342.405 58.7856 343.76 58.7856C345.144 58.7856 346.578 58.4272 348.064 57.7056C349.549 56.9856 351.474 55.7008 353.839 53.856L353.882 48.1888L353.968 32.7488L353.709 17.5665V16.224H375.853" fill="white"/>
<path d="M375.853 16.224L375.725 50.2224L375.853 63.4576H353.709V57.3585C350.052 59.8689 346.717 61.6689 343.709 62.7665C340.698 63.8609 337.551 64.4097 334.269 64.4097C328.25 64.4097 323.887 62.6209 321.179 59.0465C320.171 57.7201 319.472 56.2145 319.083 54.5265C318.693 52.8385 318.501 50.4385 318.501 47.3265L318.588 37.2033L318.631 30.4545L318.413 16.224H340.56L340.301 37.9392L340.343 46.1585L340.386 51.6945C340.386 55.0097 340.589 57 340.992 57.6624C341.482 58.4128 342.405 58.7856 343.76 58.7856C345.144 58.7856 346.578 58.4272 348.064 57.7056C349.549 56.9856 351.474 55.7008 353.839 53.856L353.882 48.1888L353.968 32.7488L353.709 17.5665V16.224H375.853Z" stroke="white" stroke-width="1.33333" stroke-miterlimit="10"/>
<path d="M385.111 55.456C385.688 55.456 386.423 55.8913 387.317 56.7633C388.759 58.1265 390.805 59.296 393.459 60.2688C396.111 61.2416 398.591 61.7265 400.898 61.7265C401.965 61.7265 402.765 61.5472 403.299 61.1824C403.832 60.8208 404.099 60.2913 404.099 59.5937C404.099 58.8961 403.731 58.0609 402.995 57.0897C402.261 56.1153 400.624 54.2593 398.088 51.5185C391.888 44.8865 387.872 40.2225 386.042 37.5265C384.21 34.8305 383.293 32.2433 383.293 29.7633C383.293 27.6001 383.922 25.5329 385.175 23.5569C386.431 21.5809 388.183 19.9009 390.431 18.5185C394.151 16.2129 398.418 15.0576 403.234 15.0576C406.781 15.0576 410.528 15.808 414.48 17.3072C417.565 18.4896 419.107 19.7729 419.107 21.1569C419.107 21.5889 418.928 21.9793 418.568 22.3249C418.205 22.6689 417.795 22.8433 417.333 22.8433C416.786 22.8433 415.763 22.3089 414.263 21.2433C411.208 19.0529 407.877 17.9553 404.271 17.9553C403.003 17.9553 402.045 18.1585 401.395 18.5601C400.747 18.9665 400.423 19.5856 400.423 20.4208C400.423 21.4016 401.021 22.6416 402.218 24.1408C403.413 25.64 405.843 28.1777 409.506 31.7537C413.08 35.2433 415.351 37.5281 416.319 38.6097C417.283 39.6897 418.213 40.9392 419.107 42.3488C420.635 44.7744 421.4 47.3968 421.4 50.2224C421.4 54.664 419.251 58.2545 414.955 60.9937C411.437 63.2705 407.111 64.4097 401.979 64.4097C396.271 64.4097 391.21 63.1409 386.799 60.6049C385.501 59.8257 384.613 59.1904 384.138 58.7008C383.663 58.2112 383.424 57.6768 383.424 57.1008C383.424 56.0336 383.986 55.4864 385.111 55.456" fill="white"/>
<path d="M385.111 55.456C385.688 55.456 386.423 55.8913 387.317 56.7633C388.759 58.1265 390.805 59.296 393.459 60.2688C396.111 61.2416 398.591 61.7265 400.898 61.7265C401.965 61.7265 402.765 61.5472 403.299 61.1824C403.832 60.8208 404.099 60.2913 404.099 59.5937C404.099 58.8961 403.731 58.0609 402.995 57.0897C402.261 56.1153 400.624 54.2593 398.088 51.5185C391.888 44.8865 387.872 40.2225 386.042 37.5265C384.21 34.8305 383.293 32.2433 383.293 29.7633C383.293 27.6001 383.922 25.5329 385.175 23.5569C386.431 21.5809 388.183 19.9009 390.431 18.5185C394.151 16.2129 398.418 15.0576 403.234 15.0576C406.781 15.0576 410.528 15.808 414.48 17.3072C417.565 18.4896 419.107 19.7729 419.107 21.1569C419.107 21.5889 418.928 21.9793 418.568 22.3249C418.205 22.6689 417.795 22.8433 417.333 22.8433C416.786 22.8433 415.763 22.3089 414.263 21.2433C411.208 19.0529 407.877 17.9553 404.271 17.9553C403.003 17.9553 402.045 18.1585 401.395 18.5601C400.747 18.9665 400.423 19.5856 400.423 20.4208C400.423 21.4016 401.021 22.6416 402.218 24.1408C403.413 25.64 405.843 28.1777 409.506 31.7537C413.08 35.2433 415.351 37.5281 416.319 38.6097C417.283 39.6897 418.213 40.9392 419.107 42.3488C420.635 44.7744 421.4 47.3968 421.4 50.2224C421.4 54.664 419.251 58.2545 414.955 60.9937C411.437 63.2705 407.111 64.4097 401.979 64.4097C396.271 64.4097 391.21 63.1409 386.799 60.6049C385.501 59.8257 384.613 59.1904 384.138 58.7008C383.663 58.2112 383.424 57.6768 383.424 57.1008C383.424 56.0336 383.986 55.4864 385.111 55.456V55.456Z" stroke="white" stroke-width="1.33333" stroke-miterlimit="10"/>
<path d="M451.245 1.00012L450.768 14.9713L450.725 16.3121C453.233 16.3121 455.512 16.2129 457.56 16.0081C457.905 15.9809 458.208 15.9665 458.467 15.9665C459.736 15.9665 460.371 16.5505 460.371 17.7201C460.371 18.7985 459.707 19.3393 458.381 19.3393C457.977 19.3393 457.472 19.3105 456.867 19.2545C454.59 19.0801 452.96 18.9937 451.981 18.9937H450.725L450.681 27.3745L450.83 44.1745L450.942 53.1649C450.942 55.2689 451.101 56.7393 451.421 57.5745C451.737 58.4129 452.289 58.8305 453.072 58.8305C454.117 58.8305 455.232 58.2241 456.421 57.0129C457.579 55.8017 458.493 54.3185 459.16 52.5585C459.765 50.8865 460.485 50.0497 461.321 50.0497C462.302 50.0497 462.792 50.5985 462.792 51.6945C462.792 52.7889 462.302 54.1521 461.321 55.7809C460.342 57.4097 459.16 58.8305 457.774 60.0417C454.373 63.0113 449.96 64.4961 444.541 64.4961C439.437 64.4961 435.485 62.9553 432.688 59.8721C431.248 58.3185 430.253 56.5809 429.704 54.6657C429.157 52.7489 428.883 50.0929 428.883 46.6929V43.4513L428.925 34.3345V18.8641C428.521 18.8353 428.233 18.8209 428.061 18.8209C427.773 18.8209 427.195 18.8497 426.331 18.9073C425.609 18.9665 425.005 18.9937 424.513 18.9937C423.101 18.9937 422.395 18.4529 422.395 17.3713C422.395 16.3185 423.07 15.7921 424.429 15.7921C425.062 15.7921 425.509 15.8081 425.768 15.8353L428.925 16.0545V11.1665C437.461 8.08012 444.901 4.69292 451.245 1.00012" fill="white"/>
<path d="M451.245 1.00012L450.768 14.9713L450.725 16.3121C453.233 16.3121 455.512 16.2129 457.56 16.0081C457.905 15.9809 458.208 15.9665 458.467 15.9665C459.736 15.9665 460.371 16.5505 460.371 17.7201C460.371 18.7985 459.707 19.3393 458.381 19.3393C457.977 19.3393 457.472 19.3105 456.867 19.2545C454.59 19.0801 452.96 18.9937 451.981 18.9937H450.725L450.681 27.3745L450.83 44.1745L450.942 53.1649C450.942 55.2689 451.101 56.7393 451.421 57.5745C451.737 58.4129 452.289 58.8305 453.072 58.8305C454.117 58.8305 455.232 58.2241 456.421 57.0129C457.579 55.8017 458.493 54.3185 459.16 52.5585C459.765 50.8865 460.485 50.0497 461.321 50.0497C462.302 50.0497 462.792 50.5985 462.792 51.6945C462.792 52.7889 462.302 54.1521 461.321 55.7809C460.342 57.4097 459.16 58.8305 457.774 60.0417C454.373 63.0113 449.96 64.4961 444.541 64.4961C439.437 64.4961 435.485 62.9553 432.688 59.8721C431.248 58.3185 430.253 56.5809 429.704 54.6657C429.157 52.7489 428.883 50.0929 428.883 46.6929V43.4513L428.925 34.3345V18.8641C428.521 18.8353 428.233 18.8209 428.061 18.8209C427.773 18.8209 427.195 18.8497 426.331 18.9073C425.609 18.9665 425.005 18.9937 424.513 18.9937C423.101 18.9937 422.395 18.4529 422.395 17.3713C422.395 16.3185 423.07 15.7921 424.429 15.7921C425.062 15.7921 425.509 15.8081 425.768 15.8353L428.925 16.0545V11.1665C437.461 8.08012 444.901 4.69292 451.245 1.00012V1.00012Z" stroke="white" stroke-width="1.33333" stroke-miterlimit="10"/>
<path d="M500.842 37.7665C497.208 35.9489 494.397 35.0401 492.408 35.0401C490.733 35.0401 489.64 35.704 489.12 37.0304C488.83 37.7504 488.688 39.8416 488.688 43.3008V53.6385C488.715 55.9185 488.789 57.3008 488.902 57.7904C489.19 59.1184 490.173 59.7808 491.845 59.7808C493.171 59.7808 494.648 59.3857 496.278 58.5921C497.907 57.7985 499.4 56.7536 500.755 55.456L500.842 37.7665ZM500.842 34.6529V29.3745C500.813 25.7137 500.754 23.4624 500.667 22.6272C500.581 21.7904 500.32 21.0416 499.888 20.3776C498.848 18.7632 496.422 17.9553 492.61 17.9553C486.718 17.9553 482.17 19.8017 478.963 23.4929C477.664 24.9921 476.568 25.7408 475.672 25.7408C475.008 25.7408 474.43 25.5105 473.938 25.0497C473.448 24.5889 473.203 24.0545 473.203 23.4481C473.203 21.6321 475.35 19.7584 479.648 17.8272C483.741 15.9808 489.034 15.0576 495.52 15.0576C506.19 15.0576 513.715 16.672 518.099 19.9008C520.002 21.3152 521.242 22.9008 521.819 24.6608C522.395 26.4192 522.685 29.5185 522.685 33.9585V51.1313C522.568 54.3025 522.662 56.6881 522.965 58.2881C523.267 59.8897 523.952 61.6128 525.021 63.4576H500.798V58.9169C498.144 60.7329 495.514 62.1024 492.904 63.0256C490.293 63.9472 487.72 64.4097 485.182 64.4097C480.888 64.4097 477.066 63.1553 473.722 60.6465C469.368 57.3585 467.19 53.0929 467.19 47.8433C467.19 43.2017 468.95 39.4529 472.474 36.5985C476.573 33.2225 481.654 31.5376 487.72 31.5376C490.202 31.5376 492.395 31.7617 494.301 32.2081C496.208 32.6545 498.387 33.4689 500.842 34.6529" fill="white"/>
<path d="M500.842 37.7665C497.208 35.9489 494.397 35.0401 492.408 35.0401C490.733 35.0401 489.64 35.704 489.12 37.0304C488.83 37.7504 488.688 39.8416 488.688 43.3008V53.6385C488.715 55.9185 488.789 57.3008 488.902 57.7904C489.19 59.1184 490.173 59.7808 491.845 59.7808C493.171 59.7808 494.648 59.3857 496.278 58.5921C497.907 57.7985 499.4 56.7536 500.755 55.456L500.842 37.7665ZM500.842 34.6529V29.3745C500.813 25.7137 500.754 23.4624 500.667 22.6272C500.581 21.7904 500.32 21.0416 499.888 20.3776C498.848 18.7632 496.422 17.9553 492.61 17.9553C486.718 17.9553 482.17 19.8017 478.963 23.4929C477.664 24.9921 476.568 25.7408 475.672 25.7408C475.008 25.7408 474.43 25.5105 473.938 25.0497C473.448 24.5889 473.203 24.0545 473.203 23.4481C473.203 21.6321 475.35 19.7584 479.648 17.8272C483.741 15.9808 489.034 15.0576 495.52 15.0576C506.19 15.0576 513.715 16.672 518.099 19.9008C520.002 21.3152 521.242 22.9008 521.819 24.6608C522.395 26.4192 522.685 29.5185 522.685 33.9585V51.1313C522.568 54.3025 522.662 56.6881 522.965 58.2881C523.267 59.8897 523.952 61.6128 525.021 63.4576H500.798V58.9169C498.144 60.7329 495.514 62.1024 492.904 63.0256C490.293 63.9472 487.72 64.4097 485.182 64.4097C480.888 64.4097 477.066 63.1553 473.722 60.6465C469.368 57.3585 467.19 53.0929 467.19 47.8433C467.19 43.2017 468.95 39.4529 472.474 36.5985C476.573 33.2225 481.654 31.5376 487.72 31.5376C490.202 31.5376 492.395 31.7617 494.301 32.2081C496.208 32.6545 498.387 33.4689 500.842 34.6529V34.6529Z" stroke="white" stroke-width="1.33333" stroke-miterlimit="10"/>
<path d="M550.165 25.6129V54.504L550.121 57.2737C550.121 59.0609 550.344 60.2513 550.792 60.8401C551.24 61.4321 552.141 61.7265 553.494 61.7265C556.897 61.7265 560.243 60.6833 563.531 58.5921C566.817 56.5009 569.499 53.6976 571.574 50.1792C572.209 49.112 572.829 48.5792 573.435 48.5792C573.869 48.5792 574.264 48.7745 574.624 49.1633C574.985 49.5521 575.165 49.9633 575.165 50.3953C575.165 51.4337 574.328 52.8976 572.656 54.7856C570.984 56.6736 569.038 58.3696 566.817 59.8688C562.289 62.8944 557.445 64.4097 552.285 64.4097C545.219 64.4097 539.379 62.2193 534.765 57.8353C529.518 52.9041 526.893 46.8641 526.893 39.7121C526.893 32.3313 529.662 26.1889 535.2 21.2865C539.841 17.1345 545.565 15.0576 552.371 15.0576C557.79 15.0576 562.534 16.3408 566.6 18.9072C568.331 20.0032 569.744 21.1777 570.84 22.4321C571.934 23.6865 572.485 24.7457 572.485 25.6129C572.485 26.0449 572.325 26.4113 572.006 26.7153C571.689 27.0161 571.301 27.1681 570.84 27.1681C570.233 27.1681 569.47 26.4769 568.547 25.0929C567.221 23.1617 565.131 21.4817 562.275 20.0545C559.422 18.6257 556.725 17.9121 554.187 17.9121C552.485 17.9121 551.39 18.3888 550.901 19.3392C550.409 20.2912 550.165 22.3825 550.165 25.6129" fill="white"/>
<path d="M550.165 25.6129V54.504L550.121 57.2737C550.121 59.0609 550.344 60.2513 550.792 60.8401C551.24 61.4321 552.141 61.7265 553.494 61.7265C556.897 61.7265 560.243 60.6833 563.531 58.5921C566.817 56.5009 569.499 53.6976 571.574 50.1792C572.209 49.112 572.829 48.5792 573.435 48.5792C573.869 48.5792 574.264 48.7745 574.624 49.1633C574.985 49.5521 575.165 49.9633 575.165 50.3953C575.165 51.4337 574.328 52.8976 572.656 54.7856C570.984 56.6736 569.038 58.3696 566.817 59.8688C562.289 62.8944 557.445 64.4097 552.285 64.4097C545.219 64.4097 539.379 62.2193 534.765 57.8353C529.518 52.9041 526.893 46.8641 526.893 39.7121C526.893 32.3313 529.662 26.1889 535.2 21.2865C539.841 17.1345 545.565 15.0576 552.371 15.0576C557.79 15.0576 562.534 16.3408 566.6 18.9072C568.331 20.0032 569.744 21.1777 570.84 22.4321C571.934 23.6865 572.485 24.7457 572.485 25.6129C572.485 26.0449 572.325 26.4113 572.006 26.7153C571.689 27.0161 571.301 27.1681 570.84 27.1681C570.233 27.1681 569.47 26.4769 568.547 25.0929C567.221 23.1617 565.131 21.4817 562.275 20.0545C559.422 18.6257 556.725 17.9121 554.187 17.9121C552.485 17.9121 551.39 18.3888 550.901 19.3392C550.409 20.2912 550.165 22.3825 550.165 25.6129Z" stroke="white" stroke-width="1.33333" stroke-miterlimit="10"/>
<path d="M603.055 22.3247C605.823 20.4495 608.087 19.0799 609.845 18.2159C614.171 16.1103 618.453 15.0575 622.693 15.0575C625.749 15.0575 628.503 15.6063 630.954 16.7007C633.405 17.7983 635.221 19.2959 636.403 21.1999C637.816 23.4783 638.523 27.6607 638.523 33.7423L638.437 40.1871L638.351 48.7087L638.696 63.4575H616.464L616.639 36.7263L616.376 23.0591C616.09 21.5599 615.027 20.8112 613.187 20.8112C611.835 20.8112 610.32 21.2207 608.64 22.0431C606.957 22.8639 605.096 24.1119 603.055 25.7839L602.97 36.6415L603.117 55.4559L603.229 63.4575H580.997L581.083 45.2063V24.3999L580.952 6.40635L580.997 4.41752H603.055V5.62873L603.098 13.0239L603.055 17.6096V22.3247" fill="white"/>
<path d="M603.055 22.3247C605.823 20.4495 608.087 19.0799 609.845 18.2159C614.171 16.1103 618.453 15.0575 622.693 15.0575C625.749 15.0575 628.503 15.6063 630.954 16.7007C633.405 17.7983 635.221 19.2959 636.403 21.1999C637.816 23.4783 638.523 27.6607 638.523 33.7423L638.437 40.1871L638.351 48.7087L638.696 63.4575H616.464L616.639 36.7263L616.376 23.0591C616.09 21.5599 615.027 20.8112 613.187 20.8112C611.835 20.8112 610.32 21.2207 608.64 22.0431C606.957 22.8639 605.096 24.1119 603.055 25.7839L602.97 36.6415L603.117 55.4559L603.229 63.4575H580.997L581.083 45.2063V24.3999L580.952 6.40635L580.997 4.41752H603.055V5.62873L603.098 13.0239L603.055 17.6096V22.3247Z" stroke="white" stroke-width="1.33333" stroke-miterlimit="10"/>
<path d="M675.123 38.3713V25.7681C675.065 23.0625 675.008 21.4465 674.95 20.9121C674.893 20.3809 674.691 19.8848 674.344 19.4224C673.537 18.3008 671.893 17.7392 669.414 17.7392C666.877 17.7392 665.289 18.3873 664.656 19.6817C664.253 20.4593 664.049 22.4865 664.049 25.7681V38.3713L669.326 38.544L675.123 38.3713ZM664.049 41.2256V54.6337C664.049 57.2289 664.209 58.8737 664.526 59.5649C665.133 60.8913 666.56 61.5553 668.809 61.5553C672.153 61.5553 675.462 60.6401 678.734 58.8081C682.006 56.9777 684.84 54.4464 687.235 51.2176C688.013 50.1504 688.574 49.4736 688.921 49.184C689.267 48.896 689.641 48.7521 690.045 48.7521C690.536 48.7521 690.939 48.9329 691.257 49.2929C691.573 49.6545 691.733 50.1089 691.733 50.6545C691.733 51.8657 690.765 53.496 688.835 55.5424C686.297 58.1664 683.147 60.3008 679.382 61.944C675.621 63.5888 671.95 64.4097 668.376 64.4097C662.233 64.4097 656.813 62.3488 652.112 58.224C649.373 55.8016 647.269 52.8176 645.797 49.2704C644.501 46.1584 643.851 43.0433 643.851 39.9281C643.851 36.9297 644.429 33.9248 645.582 30.9088C646.734 27.896 648.32 25.2944 650.339 23.1024C652.675 20.536 655.443 18.5473 658.645 17.1345C661.787 15.7489 665.073 15.0576 668.505 15.0576C673.84 15.0576 678.67 16.6289 682.995 19.7729C689.742 24.6737 693.088 31.7808 693.03 41.096H682.952L669.976 41.1392L664.049 41.2256" fill="white"/>
<path d="M675.123 38.3713V25.7681C675.065 23.0625 675.008 21.4465 674.95 20.9121C674.893 20.3809 674.691 19.8848 674.344 19.4224C673.537 18.3008 671.893 17.7392 669.414 17.7392C666.877 17.7392 665.289 18.3873 664.656 19.6817C664.253 20.4593 664.049 22.4865 664.049 25.7681V38.3713L669.326 38.544L675.123 38.3713ZM664.049 41.2256V54.6337C664.049 57.2289 664.209 58.8737 664.526 59.5649C665.133 60.8913 666.56 61.5553 668.809 61.5553C672.153 61.5553 675.462 60.6401 678.734 58.8081C682.006 56.9777 684.84 54.4464 687.235 51.2176C688.013 50.1504 688.574 49.4736 688.921 49.184C689.267 48.896 689.641 48.7521 690.045 48.7521C690.536 48.7521 690.939 48.9329 691.257 49.2929C691.573 49.6545 691.733 50.1089 691.733 50.6545C691.733 51.8657 690.765 53.496 688.835 55.5424C686.297 58.1664 683.147 60.3008 679.382 61.944C675.621 63.5888 671.95 64.4097 668.376 64.4097C662.233 64.4097 656.813 62.3488 652.112 58.224C649.373 55.8016 647.269 52.8176 645.797 49.2704C644.501 46.1584 643.851 43.0433 643.851 39.9281C643.851 36.9297 644.429 33.9248 645.582 30.9088C646.734 27.896 648.32 25.2944 650.339 23.1024C652.675 20.536 655.443 18.5473 658.645 17.1345C661.787 15.7489 665.073 15.0576 668.505 15.0576C673.84 15.0576 678.67 16.6289 682.995 19.7729C689.742 24.6737 693.088 31.7808 693.03 41.096H682.952L669.976 41.1392L664.049 41.2256Z" stroke="white" stroke-width="1.33333" stroke-miterlimit="10"/>
<path d="M149.08 46.6355C151.048 46.6515 152.89 46.9011 154.299 47.3251C156.104 47.8691 157.877 48.7091 159.15 50.0995C161.827 53.0259 161.472 58.0803 158.626 60.8435C156.349 63.0531 153.003 63.7795 149.83 63.8515C147.195 63.9107 144.504 63.5699 142.114 62.4547C139.725 61.3395 137.654 59.3859 136.771 56.9011C134.048 49.2451 142.31 46.5731 149.08 46.6355" fill="white"/>
<path d="M149.08 46.6355C151.048 46.6515 152.89 46.9011 154.299 47.3251C156.104 47.8691 157.877 48.7091 159.15 50.0995C161.827 53.0259 161.472 58.0803 158.626 60.8435C156.349 63.0531 153.003 63.7795 149.83 63.8515C147.195 63.9107 144.504 63.5699 142.114 62.4547C139.725 61.3395 137.654 59.3859 136.771 56.9011C134.048 49.2451 142.31 46.5731 149.08 46.6355V46.6355Z" stroke="white" stroke-width="1.33333" stroke-miterlimit="10"/>
<path d="M65.383 2.54434L74.8525 34.9428L79.1525 49.2948L83.0181 62.298L83.5394 63.9491H57.1019L48.7813 33.2052L30.8106 60.21L12.385 34.5412C10.6062 40.8052 8.66624 48.4899 6.56688 57.5955C5.8088 61.0755 5.26256 63.1427 4.92992 63.7955C4.5968 64.4499 3.92368 64.7764 2.91056 64.7764C1.63616 64.7764 1 64.3411 1 63.4723C1 63.2099 1.40624 61.746 2.21872 59.0788L4.91872 49.8164L9.62064 33.8116L18.8082 2.54434L42.6174 37.0564L65.383 2.54434Z" fill="white"/>
<path d="M65.383 2.54434L74.8525 34.9428L79.1525 49.2948L83.0181 62.298L83.5394 63.9491H57.1019L48.7813 33.2052L30.8106 60.21L12.385 34.5412C10.6062 40.8052 8.66624 48.4899 6.56688 57.5955C5.8088 61.0755 5.26256 63.1427 4.92992 63.7955C4.5968 64.4499 3.92368 64.7764 2.91056 64.7764C1.63616 64.7764 1 64.3411 1 63.4723C1 63.2099 1.40624 61.746 2.21872 59.0788L4.91872 49.8164L9.62064 33.8116L18.8082 2.54434L42.6174 37.0564L65.383 2.54434Z" stroke="white" stroke-width="1.33333" stroke-miterlimit="10"/>
<path d="M111.808 29.9426L111.72 46.6402L111.893 63.949H89.5405L89.5937 61.557L89.6461 52.6866L89.8018 36.7266L89.5937 18.9826L89.5405 16.461H111.85V25.4194C115.176 21.8818 117.493 19.6498 118.794 18.7218C121.803 16.6066 124.638 15.5474 127.301 15.5474C128.92 15.5474 130.259 15.8962 131.314 16.5906C132.37 17.2866 132.898 18.1714 132.898 19.2434C132.898 20.085 132.579 20.781 131.942 21.3314C131.307 21.8818 130.51 22.157 129.557 22.157C128.949 22.157 128.269 21.9842 127.517 21.6354C126.243 21.0258 125.187 20.7218 124.349 20.7218C122.266 20.7218 120.253 21.4322 118.317 22.853C116.378 24.2754 114.208 26.637 111.808 29.9426" fill="white"/>
<path d="M111.808 29.9426L111.72 46.6402L111.893 63.949H89.5405L89.5937 61.557L89.6461 52.6866L89.8018 36.7266L89.5937 18.9826L89.5405 16.461H111.85V25.4194C115.176 21.8818 117.493 19.6498 118.794 18.7218C121.803 16.6066 124.638 15.5474 127.301 15.5474C128.92 15.5474 130.259 15.8962 131.314 16.5906C132.37 17.2866 132.898 18.1714 132.898 19.2434C132.898 20.085 132.579 20.781 131.942 21.3314C131.307 21.8818 130.51 22.157 129.557 22.157C128.949 22.157 128.269 21.9842 127.517 21.6354C126.243 21.0258 125.187 20.7218 124.349 20.7218C122.266 20.7218 120.253 21.4322 118.317 22.853C116.378 24.2754 114.208 26.637 111.808 29.9426V29.9426Z" stroke="white" stroke-width="1.33333" stroke-miterlimit="10"/>
<path d="M148.117 45.9008C151.973 45.9008 155.075 46.7568 157.422 48.4672C159.771 50.1776 160.946 52.4688 160.946 55.3376C160.946 58.2672 159.757 60.6512 157.381 62.4912C155.002 64.3328 151.915 65.2544 148.117 65.2544C143.333 65.2544 139.752 63.92 137.374 61.2528C135.984 59.688 135.288 57.8608 135.288 55.7728C135.288 52.816 136.448 50.4464 138.768 48.664C141.086 46.88 144.203 45.96 148.117 45.9008Z" fill="white"/>
<path d="M148.117 45.9008C151.973 45.9008 155.075 46.7568 157.422 48.4672C159.771 50.1776 160.946 52.4688 160.946 55.3376C160.946 58.2672 159.757 60.6512 157.381 62.4912C155.002 64.3328 151.915 65.2544 148.117 65.2544C143.333 65.2544 139.752 63.92 137.374 61.2528C135.984 59.688 135.288 57.8608 135.288 55.7728C135.288 52.816 136.448 50.4464 138.768 48.664C141.086 46.88 144.203 45.96 148.117 45.9008Z" stroke="white" stroke-width="1.33333" stroke-miterlimit="10"/>
</svg>
