<svg width="680" height="268" viewBox="0 0 680 268" fill="none" xmlns="http://www.w3.org/2000/svg">
<path d="M177.664 252.938H4.3418V245.279H177.664V252.938Z" fill="white"/>
<path d="M177.664 252.938H4.3418V245.279H177.664V252.938Z" stroke="white" stroke-width="1.33333" stroke-miterlimit="10"/>
<path d="M678.806 252.938H505.485V245.279H678.806V252.938Z" fill="white"/>
<path d="M678.806 252.938H505.485V245.279H678.806V252.938Z" stroke="white" stroke-width="1.33333" stroke-miterlimit="10"/>
<path d="M230.587 237.044H232.889L238.302 250.265H238.489L243.902 237.044H246.204V252.972H244.4V240.87H244.244L239.267 252.972H237.525L232.547 240.87H232.391V252.972H230.587V237.044ZM250.072 252.972V237.044H259.684V238.755H252V244.137H259.187V245.848H252V251.261H259.809V252.972H250.072ZM275.792 237.044V252.972H273.925L265.245 240.466H265.09V252.972H263.161V237.044H265.028L273.738 249.581H273.894V237.044H275.792ZM288.362 241.026C288.269 240.238 287.89 239.626 287.226 239.19C286.563 238.755 285.749 238.537 284.784 238.537C284.079 238.537 283.462 238.651 282.933 238.879C282.41 239.107 282 239.421 281.704 239.82C281.414 240.219 281.269 240.673 281.269 241.181C281.269 241.606 281.37 241.972 281.572 242.278C281.78 242.579 282.044 242.83 282.365 243.032C282.687 243.229 283.024 243.393 283.377 243.522C283.729 243.647 284.053 243.748 284.349 243.826L285.966 244.261C286.381 244.37 286.843 244.52 287.351 244.712C287.864 244.904 288.354 245.166 288.821 245.498C289.293 245.824 289.682 246.244 289.987 246.758C290.293 247.271 290.446 247.901 290.446 248.648C290.446 249.508 290.221 250.286 289.77 250.981C289.324 251.676 288.67 252.228 287.81 252.637C286.954 253.047 285.915 253.252 284.691 253.252C283.55 253.252 282.563 253.068 281.728 252.7C280.898 252.332 280.245 251.818 279.768 251.16C279.296 250.501 279.029 249.736 278.967 248.865H280.958C281.01 249.467 281.212 249.965 281.564 250.359C281.922 250.748 282.373 251.038 282.918 251.23C283.467 251.416 284.058 251.51 284.691 251.51C285.427 251.51 286.088 251.391 286.674 251.152C287.26 250.908 287.724 250.571 288.066 250.141C288.409 249.705 288.58 249.197 288.58 248.617C288.58 248.088 288.432 247.657 288.136 247.325C287.841 246.994 287.452 246.724 286.97 246.517C286.488 246.309 285.966 246.128 285.406 245.972L283.447 245.412C282.202 245.054 281.217 244.544 280.491 243.88C279.765 243.216 279.402 242.348 279.402 241.275C279.402 240.383 279.643 239.605 280.126 238.941C280.613 238.273 281.266 237.754 282.086 237.386C282.91 237.013 283.83 236.826 284.847 236.826C285.873 236.826 286.786 237.01 287.584 237.378C288.383 237.741 289.015 238.239 289.482 238.871C289.954 239.504 290.203 240.222 290.229 241.026H288.362ZM299.777 252.972V237.044H301.706V244.137H310.199V237.044H312.128V252.972H310.199V245.848H301.706V252.972H299.777ZM316.643 252.972H314.621L320.469 237.044H322.46L328.309 252.972H326.287L321.527 239.564H321.403L316.643 252.972ZM317.389 246.75H325.54V248.461H317.389V246.75ZM332.719 237.044V252.972H330.79V237.044H332.719ZM336.586 252.972V237.044H341.968C343.213 237.044 344.234 237.256 345.032 237.681C345.831 238.101 346.422 238.68 346.806 239.416C347.189 240.152 347.381 240.989 347.381 241.928C347.381 242.866 347.189 243.699 346.806 244.424C346.422 245.15 345.834 245.721 345.04 246.136C344.247 246.545 343.233 246.75 341.999 246.75H337.644V245.008H341.937C342.787 245.008 343.472 244.883 343.99 244.634C344.514 244.386 344.892 244.033 345.126 243.577C345.364 243.115 345.484 242.566 345.484 241.928C345.484 241.29 345.364 240.733 345.126 240.256C344.887 239.779 344.506 239.411 343.982 239.151C343.459 238.887 342.767 238.755 341.906 238.755H338.515V252.972H336.586ZM344.084 245.817L348.003 252.972H345.764L341.906 245.817H344.084ZM365.466 241.026C365.372 240.238 364.994 239.626 364.33 239.19C363.667 238.755 362.853 238.537 361.888 238.537C361.183 238.537 360.566 238.651 360.037 238.879C359.513 239.107 359.104 239.421 358.808 239.82C358.518 240.219 358.373 240.673 358.373 241.181C358.373 241.606 358.474 241.972 358.676 242.278C358.883 242.579 359.148 242.83 359.469 243.032C359.791 243.229 360.128 243.393 360.48 243.522C360.833 243.647 361.157 243.748 361.453 243.826L363.07 244.261C363.485 244.37 363.947 244.52 364.455 244.712C364.968 244.904 365.458 245.166 365.925 245.498C366.396 245.824 366.785 246.244 367.091 246.758C367.397 247.271 367.55 247.901 367.55 248.648C367.55 249.508 367.325 250.286 366.874 250.981C366.428 251.676 365.774 252.228 364.914 252.637C364.058 253.047 363.018 253.252 361.795 253.252C360.654 253.252 359.666 253.068 358.832 252.7C358.002 252.332 357.349 251.818 356.872 251.16C356.4 250.501 356.133 249.736 356.071 248.865H358.062C358.113 249.467 358.316 249.965 358.668 250.359C359.026 250.748 359.477 251.038 360.022 251.23C360.571 251.416 361.162 251.51 361.795 251.51C362.531 251.51 363.192 251.391 363.778 251.152C364.364 250.908 364.828 250.571 365.17 250.141C365.512 249.705 365.684 249.197 365.684 248.617C365.684 248.088 365.536 247.657 365.24 247.325C364.945 246.994 364.556 246.724 364.074 246.517C363.591 246.309 363.07 246.128 362.51 245.972L360.55 245.412C359.306 245.054 358.321 244.544 357.595 243.88C356.869 243.216 356.506 242.348 356.506 241.275C356.506 240.383 356.747 239.605 357.229 238.941C357.717 238.273 358.37 237.754 359.189 237.386C360.014 237.013 360.934 236.826 361.95 236.826C362.977 236.826 363.89 237.01 364.688 237.378C365.487 237.741 366.119 238.239 366.586 238.871C367.058 239.504 367.306 240.222 367.332 241.026H365.466ZM371.375 252.972H369.353L375.201 237.044H377.192L383.041 252.972H381.019L376.259 239.564H376.135L371.375 252.972ZM372.121 246.75H380.272V248.461H372.121V246.75ZM385.522 252.972V237.044H387.451V251.261H394.855V252.972H385.522ZM410.661 245.008C410.661 246.688 410.357 248.14 409.751 249.363C409.144 250.587 408.312 251.53 407.254 252.194C406.196 252.858 404.988 253.19 403.63 253.19C402.271 253.19 401.063 252.858 400.006 252.194C398.948 251.53 398.116 250.587 397.509 249.363C396.902 248.14 396.599 246.688 396.599 245.008C396.599 243.328 396.902 241.876 397.509 240.652C398.116 239.429 398.948 238.485 400.006 237.821C401.063 237.158 402.271 236.826 403.63 236.826C404.988 236.826 406.196 237.158 407.254 237.821C408.312 238.485 409.144 239.429 409.751 240.652C410.357 241.876 410.661 243.328 410.661 245.008ZM408.794 245.008C408.794 243.629 408.563 242.465 408.102 241.516C407.646 240.567 407.026 239.849 406.243 239.361C405.465 238.874 404.594 238.63 403.63 238.63C402.665 238.63 401.792 238.874 401.009 239.361C400.231 239.849 399.611 240.567 399.15 241.516C398.694 242.465 398.466 243.629 398.466 245.008C398.466 246.387 398.694 247.551 399.15 248.5C399.611 249.449 400.231 250.167 401.009 250.654C401.792 251.142 402.665 251.385 403.63 251.385C404.594 251.385 405.465 251.142 406.243 250.654C407.026 250.167 407.646 249.449 408.102 248.5C408.563 247.551 408.794 246.387 408.794 245.008ZM426.534 237.044V252.972H424.668L415.988 240.466H415.833V252.972H413.904V237.044H415.77L424.481 249.581H424.637V237.044H426.534Z" fill="white"/>
<path d="M566.712 130.464L566.458 160.557L566.712 186.111C568.181 186.307 569.397 186.408 570.358 186.408C573.128 186.408 575.968 185.912 578.878 184.92C581.787 183.931 584.36 182.586 586.592 180.89C588.035 179.786 589.525 178.314 591.065 176.474C592.603 174.635 593.84 172.84 594.773 171.083C595.312 170.066 595.888 169.555 596.512 169.555C597.443 169.555 597.91 169.952 597.91 170.746C597.91 171.592 597.21 173.029 595.81 175.053C594.408 177.077 592.875 178.895 591.205 180.507C587.582 183.987 583.323 186.408 578.429 187.765C575.485 188.584 572.656 188.997 569.938 188.997C565.978 188.997 562 188.147 558.011 186.45C551.616 183.76 546.749 179.504 543.41 173.672C540.635 168.834 539.25 163.698 539.25 158.266C539.25 152.72 540.693 147.483 543.579 142.56C546.662 137.325 551.021 133.32 556.653 130.547C560.755 128.568 565.186 127.578 569.938 127.578C578.088 127.578 585.134 130.336 591.077 135.855C593.906 138.485 595.322 140.381 595.322 141.541C595.322 141.855 595.179 142.138 594.898 142.391C594.614 142.645 594.302 142.773 593.965 142.773C593.4 142.773 592.72 142.221 591.931 141.117C589.501 137.749 586.293 135.082 582.31 133.115C578.325 131.149 574.115 130.167 569.68 130.167C568.635 130.167 567.645 130.266 566.712 130.464" fill="white"/>
<path d="M566.712 130.464L566.458 160.557L566.712 186.111C568.181 186.307 569.397 186.408 570.358 186.408C573.128 186.408 575.968 185.912 578.878 184.92C581.787 183.931 584.36 182.586 586.592 180.89C588.035 179.786 589.525 178.314 591.065 176.474C592.603 174.635 593.84 172.84 594.773 171.083C595.312 170.066 595.888 169.555 596.512 169.555C597.443 169.555 597.91 169.952 597.91 170.746C597.91 171.592 597.21 173.029 595.81 175.053C594.408 177.077 592.875 178.895 591.205 180.507C587.582 183.987 583.323 186.408 578.429 187.765C575.485 188.584 572.656 188.997 569.938 188.997C565.978 188.997 562 188.147 558.011 186.45C551.616 183.76 546.749 179.504 543.41 173.672C540.635 168.834 539.25 163.698 539.25 158.266C539.25 152.72 540.693 147.483 543.579 142.56C546.662 137.325 551.021 133.32 556.653 130.547C560.755 128.568 565.186 127.578 569.938 127.578C578.088 127.578 585.134 130.336 591.077 135.855C593.906 138.485 595.322 140.381 595.322 141.541C595.322 141.855 595.179 142.138 594.898 142.391C594.614 142.645 594.302 142.773 593.965 142.773C593.4 142.773 592.72 142.221 591.931 141.117C589.501 137.749 586.293 135.082 582.31 133.115C578.325 131.149 574.115 130.167 569.68 130.167C568.635 130.167 567.645 130.266 566.712 130.464V130.464Z" stroke="white" stroke-width="1.33333" stroke-miterlimit="10"/>
<path d="M624.542 142.474L624.416 185.304C625.291 185.36 625.901 185.389 626.24 185.389C630.173 185.389 633.936 184.285 637.531 182.074C640.982 179.92 643.571 177.061 645.297 173.491C646.657 170.659 647.336 167.544 647.336 164.144C647.336 157.319 644.817 151.781 639.779 147.531C635.705 144.104 631.275 142.391 626.494 142.391C626.097 142.391 625.448 142.418 624.542 142.474V142.474ZM625.773 139.759C630.328 139.759 634.645 141.018 638.718 143.536C642.481 145.858 645.355 149.026 647.336 153.043C649.089 156.581 649.968 160.331 649.968 164.293C649.968 167.01 649.449 169.741 648.417 172.485C647.385 175.231 645.977 177.664 644.195 179.786C641.705 182.7 638.662 184.895 635.069 186.363C632.125 187.581 629.056 188.191 625.857 188.191C620.51 188.191 615.699 186.605 611.425 183.435C608.088 181.002 605.553 177.875 603.827 174.056C602.385 170.829 601.662 167.42 601.662 163.826C601.662 156.808 604.211 150.978 609.302 146.338C614.086 142.037 619.576 139.843 625.773 139.759" fill="white"/>
<path d="M624.542 142.474L624.416 185.304C625.291 185.36 625.901 185.389 626.24 185.389C630.173 185.389 633.936 184.285 637.531 182.074C640.982 179.92 643.571 177.061 645.297 173.491C646.657 170.659 647.336 167.544 647.336 164.144C647.336 157.319 644.817 151.781 639.779 147.531C635.705 144.104 631.275 142.391 626.494 142.391C626.097 142.391 625.448 142.418 624.542 142.474V142.474ZM625.773 139.759C630.328 139.759 634.645 141.018 638.718 143.536C642.481 145.858 645.355 149.026 647.336 153.043C649.089 156.581 649.968 160.331 649.968 164.293C649.968 167.01 649.449 169.741 648.417 172.485C647.385 175.231 645.977 177.664 644.195 179.786C641.705 182.7 638.662 184.895 635.069 186.363C632.125 187.581 629.056 188.191 625.857 188.191C620.51 188.191 615.699 186.605 611.425 183.435C608.088 181.002 605.553 177.875 603.827 174.056C602.385 170.829 601.662 167.42 601.662 163.826C601.662 156.808 604.211 150.978 609.302 146.338C614.086 142.037 619.576 139.843 625.773 139.759V139.759Z" stroke="white" stroke-width="1.33333" stroke-miterlimit="10"/>
<path d="M666.759 169.64C670.52 169.64 673.549 170.475 675.84 172.146C678.135 173.815 679.28 176.05 679.28 178.851C679.28 181.711 678.119 184.037 675.8 185.834C673.479 187.632 670.466 188.53 666.759 188.53C662.088 188.53 658.595 187.229 656.272 184.624C654.915 183.096 654.235 181.312 654.235 179.275C654.235 176.391 655.368 174.077 657.632 172.338C659.896 170.595 662.938 169.698 666.759 169.64" fill="white"/>
<path d="M666.759 169.64C670.52 169.64 673.549 170.475 675.84 172.146C678.135 173.815 679.28 176.05 679.28 178.851C679.28 181.711 678.119 184.037 675.8 185.834C673.479 187.632 670.466 188.53 666.759 188.53C662.088 188.53 658.595 187.229 656.272 184.624C654.915 183.096 654.235 181.312 654.235 179.275C654.235 176.391 655.368 174.077 657.632 172.338C659.896 170.595 662.938 169.698 666.759 169.64V169.64Z" stroke="white" stroke-width="1.33333" stroke-miterlimit="10"/>
<path d="M65.0357 128.077L74.4544 160.3L78.7318 174.573L82.5757 187.506L83.0944 189.149H56.7987L48.5238 158.572L30.6501 185.429L12.3245 159.901C10.555 166.13 8.62496 173.773 6.5376 182.829C5.78256 186.292 5.24064 188.346 4.9088 188.997C4.5776 189.645 3.90752 189.97 2.90064 189.97C1.63312 189.97 1 189.538 1 188.674C1 188.415 1.40384 186.959 2.21248 184.306L4.8976 175.092L9.5744 159.176L18.7125 128.077L42.3931 162.402L65.0357 128.077Z" fill="white"/>
<path d="M65.0357 128.077L74.4544 160.3L78.7318 174.573L82.5757 187.506L83.0944 189.149H56.7987L48.5238 158.572L30.6501 185.429L12.3245 159.901C10.555 166.13 8.62496 173.773 6.5376 182.829C5.78256 186.292 5.24064 188.346 4.9088 188.997C4.5776 189.645 3.90752 189.97 2.90064 189.97C1.63312 189.97 1 189.538 1 188.674C1 188.415 1.40384 186.959 2.21248 184.306L4.8976 175.092L9.5744 159.176L18.7125 128.077L42.3931 162.402L65.0357 128.077Z" stroke="white" stroke-width="1.33333" stroke-miterlimit="10"/>
<path d="M109.435 143.519L109.306 187.16C110.198 187.218 110.819 187.247 111.165 187.247C115.173 187.247 119.008 186.12 122.67 183.869C126.187 181.675 128.826 178.76 130.586 175.123C131.97 172.239 132.662 169.063 132.662 165.599C132.662 158.642 130.096 153 124.963 148.671C120.81 145.178 116.298 143.431 111.426 143.431C111.021 143.431 110.357 143.459 109.435 143.519V143.519ZM110.688 140.749C115.331 140.749 119.728 142.032 123.882 144.599C127.715 146.963 130.643 150.192 132.662 154.288C134.45 157.891 135.344 161.712 135.344 165.749C135.344 168.519 134.818 171.301 133.765 174.098C132.714 176.895 131.278 179.375 129.462 181.538C126.923 184.507 123.824 186.743 120.163 188.24C117.163 189.48 114.035 190.101 110.776 190.101C105.326 190.101 100.424 188.487 96.0704 185.256C92.6675 182.778 90.0862 179.591 88.3275 175.698C86.8569 172.41 86.1226 168.936 86.1226 165.272C86.1226 158.122 88.717 152.184 93.9072 147.453C98.7792 143.071 104.374 140.835 110.688 140.749" fill="white"/>
<path d="M109.435 143.519L109.306 187.16C110.198 187.218 110.819 187.247 111.165 187.247C115.173 187.247 119.008 186.12 122.67 183.869C126.187 181.675 128.826 178.76 130.586 175.123C131.97 172.239 132.662 169.063 132.662 165.599C132.662 158.642 130.096 153 124.963 148.671C120.81 145.178 116.298 143.431 111.426 143.431C111.021 143.431 110.357 143.459 109.435 143.519V143.519ZM110.688 140.749C115.331 140.749 119.728 142.032 123.882 144.599C127.715 146.963 130.643 150.192 132.662 154.288C134.45 157.891 135.344 161.712 135.344 165.749C135.344 168.519 134.818 171.301 133.765 174.098C132.714 176.895 131.278 179.375 129.462 181.538C126.923 184.507 123.824 186.743 120.163 188.24C117.163 189.48 114.035 190.101 110.776 190.101C105.326 190.101 100.424 188.487 96.0704 185.256C92.6675 182.778 90.0862 179.591 88.3275 175.698C86.8569 172.41 86.1226 168.936 86.1226 165.272C86.1226 158.122 88.717 152.184 93.9072 147.453C98.7792 143.071 104.374 140.835 110.688 140.749V140.749Z" stroke="white" stroke-width="1.33333" stroke-miterlimit="10"/>
<path d="M198.968 141.915L198.84 175.914L198.968 189.149H176.824V183.05C173.167 185.56 169.832 187.36 166.824 188.458C163.813 189.552 160.666 190.101 157.384 190.101C151.365 190.101 147.002 188.312 144.295 184.738C143.287 183.411 142.588 181.906 142.199 180.218C141.808 178.53 141.616 176.13 141.616 173.018L141.703 162.895L141.746 156.146L141.528 141.915H163.676L163.416 163.631L163.458 171.85L163.501 177.386C163.501 180.701 163.704 182.691 164.108 183.354C164.597 184.104 165.52 184.477 166.876 184.477C168.26 184.477 169.693 184.119 171.18 183.397C172.664 182.677 174.589 181.392 176.954 179.547L176.997 173.88L177.084 158.44L176.824 143.258V141.915H198.968" fill="white"/>
<path d="M198.968 141.915L198.84 175.914L198.968 189.149H176.824V183.05C173.167 185.56 169.832 187.36 166.824 188.458C163.813 189.552 160.666 190.101 157.384 190.101C151.365 190.101 147.002 188.312 144.295 184.738C143.287 183.411 142.588 181.906 142.199 180.218C141.808 178.53 141.616 176.13 141.616 173.018L141.703 162.895L141.746 156.146L141.528 141.915H163.676L163.416 163.631L163.458 171.85L163.501 177.386C163.501 180.701 163.704 182.691 164.108 183.354C164.597 184.104 165.52 184.477 166.876 184.477C168.26 184.477 169.693 184.119 171.18 183.397C172.664 182.677 174.589 181.392 176.954 179.547L176.997 173.88L177.084 158.44L176.824 143.258V141.915H198.968Z" stroke="white" stroke-width="1.33333" stroke-miterlimit="10"/>
<path d="M208.226 181.147C208.803 181.147 209.538 181.583 210.432 182.455C211.874 183.818 213.92 184.987 216.575 185.96C219.226 186.933 221.706 187.418 224.013 187.418C225.08 187.418 225.88 187.239 226.415 186.874C226.947 186.512 227.215 185.983 227.215 185.285C227.215 184.587 226.847 183.752 226.111 182.781C225.376 181.807 223.739 179.951 221.203 177.21C215.003 170.578 210.987 165.914 209.157 163.218C207.325 160.522 206.408 157.935 206.408 155.455C206.408 153.291 207.037 151.224 208.29 149.248C209.546 147.272 211.298 145.592 213.546 144.21C217.266 141.904 221.533 140.749 226.349 140.749C229.896 140.749 233.643 141.499 237.595 142.999C240.68 144.181 242.223 145.464 242.223 146.848C242.223 147.28 242.043 147.671 241.683 148.016C241.32 148.36 240.911 148.535 240.448 148.535C239.901 148.535 238.879 148 237.378 146.935C234.323 144.744 230.992 143.647 227.386 143.647C226.119 143.647 225.16 143.85 224.511 144.251C223.863 144.658 223.538 145.277 223.538 146.112C223.538 147.093 224.136 148.333 225.333 149.832C226.528 151.331 228.959 153.869 232.621 157.445C236.195 160.935 238.466 163.219 239.434 164.301C240.399 165.381 241.328 166.631 242.223 168.04C243.751 170.466 244.515 173.088 244.515 175.914C244.515 180.355 242.367 183.946 238.071 186.685C234.552 188.962 230.226 190.101 225.095 190.101C219.386 190.101 214.325 188.832 209.914 186.296C208.616 185.517 207.728 184.882 207.253 184.392C206.778 183.903 206.539 183.368 206.539 182.792C206.539 181.725 207.101 181.178 208.226 181.147" fill="white"/>
<path d="M208.226 181.147C208.803 181.147 209.538 181.583 210.432 182.455C211.874 183.818 213.92 184.987 216.575 185.96C219.226 186.933 221.706 187.418 224.013 187.418C225.08 187.418 225.88 187.239 226.415 186.874C226.947 186.512 227.215 185.983 227.215 185.285C227.215 184.587 226.847 183.752 226.111 182.781C225.376 181.807 223.739 179.951 221.203 177.21C215.003 170.578 210.987 165.914 209.157 163.218C207.325 160.522 206.408 157.935 206.408 155.455C206.408 153.291 207.037 151.224 208.29 149.248C209.546 147.272 211.298 145.592 213.546 144.21C217.266 141.904 221.533 140.749 226.349 140.749C229.896 140.749 233.643 141.499 237.595 142.999C240.68 144.181 242.223 145.464 242.223 146.848C242.223 147.28 242.043 147.671 241.683 148.016C241.32 148.36 240.911 148.535 240.448 148.535C239.901 148.535 238.879 148 237.378 146.935C234.323 144.744 230.992 143.647 227.386 143.647C226.119 143.647 225.16 143.85 224.511 144.251C223.863 144.658 223.538 145.277 223.538 146.112C223.538 147.093 224.136 148.333 225.333 149.832C226.528 151.331 228.959 153.869 232.621 157.445C236.195 160.935 238.466 163.219 239.434 164.301C240.399 165.381 241.328 166.631 242.223 168.04C243.751 170.466 244.515 173.088 244.515 175.914C244.515 180.355 242.367 183.946 238.071 186.685C234.552 188.962 230.226 190.101 225.095 190.101C219.386 190.101 214.325 188.832 209.914 186.296C208.616 185.517 207.728 184.882 207.253 184.392C206.778 183.903 206.539 183.368 206.539 182.792C206.539 181.725 207.101 181.178 208.226 181.147V181.147Z" stroke="white" stroke-width="1.33333" stroke-miterlimit="10"/>
<path d="M274.36 126.692L273.883 140.663L273.84 142.004C276.349 142.004 278.627 141.904 280.675 141.7C281.021 141.672 281.323 141.658 281.582 141.658C282.851 141.658 283.486 142.242 283.486 143.412C283.486 144.49 282.822 145.031 281.496 145.031C281.093 145.031 280.587 145.002 279.982 144.946C277.705 144.772 276.075 144.685 275.096 144.685H273.84L273.797 153.066L273.945 169.866L274.057 178.856C274.057 180.96 274.216 182.431 274.536 183.266C274.853 184.104 275.405 184.522 276.187 184.522C277.232 184.522 278.347 183.916 279.536 182.704C280.694 181.493 281.608 180.01 282.275 178.25C282.88 176.578 283.6 175.741 284.437 175.741C285.417 175.741 285.907 176.29 285.907 177.386C285.907 178.48 285.417 179.844 284.437 181.472C283.457 183.101 282.275 184.522 280.889 185.733C277.488 188.703 273.075 190.188 267.656 190.188C262.552 190.188 258.6 188.647 255.803 185.564C254.363 184.01 253.368 182.272 252.819 180.357C252.272 178.44 251.998 175.784 251.998 172.384V169.143L252.04 160.026V144.556C251.637 144.527 251.349 144.512 251.176 144.512C250.888 144.512 250.31 144.541 249.446 144.599C248.725 144.658 248.12 144.685 247.629 144.685C246.216 144.685 245.51 144.144 245.51 143.063C245.51 142.01 246.185 141.484 247.544 141.484C248.177 141.484 248.624 141.5 248.883 141.527L252.04 141.746V136.858C260.576 133.772 268.016 130.384 274.36 126.692" fill="white"/>
<path d="M274.36 126.692L273.883 140.663L273.84 142.004C276.349 142.004 278.627 141.904 280.675 141.7C281.021 141.672 281.323 141.658 281.582 141.658C282.851 141.658 283.486 142.242 283.486 143.412C283.486 144.49 282.822 145.031 281.496 145.031C281.093 145.031 280.587 145.002 279.982 144.946C277.705 144.772 276.075 144.685 275.096 144.685H273.84L273.797 153.066L273.945 169.866L274.057 178.856C274.057 180.96 274.216 182.431 274.536 183.266C274.853 184.104 275.405 184.522 276.187 184.522C277.232 184.522 278.347 183.916 279.536 182.704C280.694 181.493 281.608 180.01 282.275 178.25C282.88 176.578 283.6 175.741 284.437 175.741C285.417 175.741 285.907 176.29 285.907 177.386C285.907 178.48 285.417 179.844 284.437 181.472C283.457 183.101 282.275 184.522 280.889 185.733C277.488 188.703 273.075 190.188 267.656 190.188C262.552 190.188 258.6 188.647 255.803 185.564C254.363 184.01 253.368 182.272 252.819 180.357C252.272 178.44 251.998 175.784 251.998 172.384V169.143L252.04 160.026V144.556C251.637 144.527 251.349 144.512 251.176 144.512C250.888 144.512 250.31 144.541 249.446 144.599C248.725 144.658 248.12 144.685 247.629 144.685C246.216 144.685 245.51 144.144 245.51 143.063C245.51 142.01 246.185 141.484 247.544 141.484C248.177 141.484 248.624 141.5 248.883 141.527L252.04 141.746V136.858C260.576 133.772 268.016 130.384 274.36 126.692V126.692Z" stroke="white" stroke-width="1.33333" stroke-miterlimit="10"/>
<path d="M323.957 163.458C320.323 161.64 317.512 160.731 315.523 160.731C313.848 160.731 312.755 161.395 312.235 162.722C311.946 163.442 311.803 165.533 311.803 168.992V179.33C311.83 181.61 311.904 182.992 312.018 183.482C312.306 184.81 313.288 185.472 314.96 185.472C316.286 185.472 317.763 185.077 319.394 184.283C321.022 183.49 322.515 182.445 323.87 181.147L323.957 163.458ZM323.957 160.344V155.066C323.928 151.405 323.869 149.154 323.782 148.319C323.696 147.482 323.435 146.733 323.003 146.069C321.963 144.455 319.538 143.647 315.725 143.647C309.834 143.647 305.285 145.493 302.078 149.184C300.779 150.683 299.683 151.432 298.787 151.432C298.123 151.432 297.546 151.202 297.053 150.741C296.563 150.28 296.318 149.746 296.318 149.139C296.318 147.323 298.466 145.45 302.763 143.519C306.856 141.672 312.149 140.749 318.635 140.749C329.306 140.749 336.83 142.363 341.214 145.592C343.117 147.007 344.357 148.592 344.934 150.352C345.51 152.111 345.8 155.21 345.8 159.65V176.823C345.683 179.994 345.778 182.379 346.08 183.979C346.382 185.581 347.067 187.304 348.136 189.149H323.914V184.608C321.259 186.424 318.629 187.794 316.019 188.717C313.408 189.639 310.835 190.101 308.298 190.101C304.003 190.101 300.181 188.847 296.837 186.338C292.483 183.05 290.306 178.784 290.306 173.535C290.306 168.893 292.066 165.144 295.589 162.29C299.688 158.914 304.77 157.229 310.835 157.229C313.317 157.229 315.51 157.453 317.416 157.899C319.323 158.346 321.502 159.16 323.957 160.344" fill="white"/>
<path d="M323.957 163.458C320.323 161.64 317.512 160.731 315.523 160.731C313.848 160.731 312.755 161.395 312.235 162.722C311.946 163.442 311.803 165.533 311.803 168.992V179.33C311.83 181.61 311.904 182.992 312.018 183.482C312.306 184.81 313.288 185.472 314.96 185.472C316.286 185.472 317.763 185.077 319.394 184.283C321.022 183.49 322.515 182.445 323.87 181.147L323.957 163.458ZM323.957 160.344V155.066C323.928 151.405 323.869 149.154 323.782 148.319C323.696 147.482 323.435 146.733 323.003 146.069C321.963 144.455 319.538 143.647 315.725 143.647C309.834 143.647 305.285 145.493 302.078 149.184C300.779 150.683 299.683 151.432 298.787 151.432C298.123 151.432 297.546 151.202 297.053 150.741C296.563 150.28 296.318 149.746 296.318 149.139C296.318 147.323 298.466 145.45 302.763 143.519C306.856 141.672 312.149 140.749 318.635 140.749C329.306 140.749 336.83 142.363 341.214 145.592C343.117 147.007 344.357 148.592 344.934 150.352C345.51 152.111 345.8 155.21 345.8 159.65V176.823C345.683 179.994 345.778 182.379 346.08 183.979C346.382 185.581 347.067 187.304 348.136 189.149H323.914V184.608C321.259 186.424 318.629 187.794 316.019 188.717C313.408 189.639 310.835 190.101 308.298 190.101C304.003 190.101 300.181 188.847 296.837 186.338C292.483 183.05 290.306 178.784 290.306 173.535C290.306 168.893 292.066 165.144 295.589 162.29C299.688 158.914 304.77 157.229 310.835 157.229C313.317 157.229 315.51 157.453 317.416 157.899C319.323 158.346 321.502 159.16 323.957 160.344V160.344Z" stroke="white" stroke-width="1.33333" stroke-miterlimit="10"/>
<path d="M373.28 151.304V180.195L373.237 182.965C373.237 184.752 373.459 185.943 373.907 186.531C374.355 187.123 375.256 187.418 376.609 187.418C380.013 187.418 383.358 186.375 386.646 184.283C389.933 182.192 392.614 179.389 394.689 175.871C395.325 174.803 395.944 174.271 396.55 174.271C396.984 174.271 397.379 174.466 397.739 174.855C398.101 175.243 398.28 175.655 398.28 176.087C398.28 177.125 397.443 178.589 395.771 180.477C394.099 182.365 392.153 184.061 389.933 185.56C385.405 188.586 380.56 190.101 375.4 190.101C368.334 190.101 362.494 187.911 357.88 183.527C352.633 178.595 350.008 172.555 350.008 165.403C350.008 158.023 352.777 151.88 358.315 146.978C362.957 142.826 368.68 140.749 375.486 140.749C380.905 140.749 385.649 142.032 389.715 144.599C391.446 145.695 392.859 146.869 393.955 148.123C395.049 149.378 395.6 150.437 395.6 151.304C395.6 151.736 395.44 152.103 395.121 152.407C394.805 152.707 394.416 152.859 393.955 152.859C393.349 152.859 392.585 152.168 391.662 150.784C390.336 148.853 388.246 147.173 385.39 145.746C382.537 144.317 379.84 143.603 377.302 143.603C375.6 143.603 374.505 144.08 374.016 145.031C373.525 145.983 373.28 148.074 373.28 151.304" fill="white"/>
<path d="M373.28 151.304V180.195L373.237 182.965C373.237 184.752 373.459 185.943 373.907 186.531C374.355 187.123 375.256 187.418 376.609 187.418C380.013 187.418 383.358 186.375 386.646 184.283C389.933 182.192 392.614 179.389 394.689 175.871C395.325 174.803 395.944 174.271 396.55 174.271C396.984 174.271 397.379 174.466 397.739 174.855C398.101 175.243 398.28 175.655 398.28 176.087C398.28 177.125 397.443 178.589 395.771 180.477C394.099 182.365 392.153 184.061 389.933 185.56C385.405 188.586 380.56 190.101 375.4 190.101C368.334 190.101 362.494 187.911 357.88 183.527C352.633 178.595 350.008 172.555 350.008 165.403C350.008 158.023 352.777 151.88 358.315 146.978C362.957 142.826 368.68 140.749 375.486 140.749C380.905 140.749 385.649 142.032 389.715 144.599C391.446 145.695 392.859 146.869 393.955 148.123C395.049 149.378 395.6 150.437 395.6 151.304C395.6 151.736 395.44 152.103 395.121 152.407C394.805 152.707 394.416 152.859 393.955 152.859C393.349 152.859 392.585 152.168 391.662 150.784C390.336 148.853 388.246 147.173 385.39 145.746C382.537 144.317 379.84 143.603 377.302 143.603C375.6 143.603 374.505 144.08 374.016 145.031C373.525 145.983 373.28 148.074 373.28 151.304V151.304Z" stroke="white" stroke-width="1.33333" stroke-miterlimit="10"/>
<path d="M426.17 148.016C428.938 146.141 431.202 144.771 432.96 143.907C437.287 141.802 441.568 140.749 445.808 140.749C448.864 140.749 451.618 141.298 454.069 142.392C456.52 143.49 458.336 144.987 459.519 146.891C460.931 149.17 461.639 153.352 461.639 159.434L461.552 165.879L461.466 174.4L461.811 189.149H439.579L439.754 162.418L439.491 148.751C439.205 147.251 438.143 146.503 436.303 146.503C434.951 146.503 433.435 146.912 431.755 147.735C430.072 148.555 428.211 149.803 426.17 151.475L426.085 162.333L426.232 181.147L426.344 189.149H404.112L404.199 170.898V150.091L404.067 132.098L404.112 130.109H426.17V131.32L426.213 138.715L426.17 143.301V148.016" fill="white"/>
<path d="M426.17 148.016C428.938 146.141 431.202 144.771 432.96 143.907C437.287 141.802 441.568 140.749 445.808 140.749C448.864 140.749 451.618 141.298 454.069 142.392C456.52 143.49 458.336 144.987 459.519 146.891C460.931 149.17 461.639 153.352 461.639 159.434L461.552 165.879L461.466 174.4L461.811 189.149H439.579L439.754 162.418L439.491 148.751C439.205 147.251 438.143 146.503 436.303 146.503C434.951 146.503 433.435 146.912 431.755 147.735C430.072 148.555 428.211 149.803 426.17 151.475L426.085 162.333L426.232 181.147L426.344 189.149H404.112L404.199 170.898V150.091L404.067 132.098L404.112 130.109H426.17V131.32L426.213 138.715L426.17 143.301V148.016Z" stroke="white" stroke-width="1.33333" stroke-miterlimit="10"/>
<path d="M498.238 164.063V151.459C498.181 148.754 498.123 147.138 498.066 146.603C498.008 146.072 497.806 145.576 497.459 145.114C496.653 143.992 495.008 143.431 492.53 143.431C489.992 143.431 488.405 144.079 487.771 145.373C487.368 146.151 487.165 148.178 487.165 151.459V164.063L492.442 164.235L498.238 164.063ZM487.165 166.917V180.325C487.165 182.92 487.325 184.565 487.642 185.256C488.248 186.583 489.675 187.247 491.925 187.247C495.269 187.247 498.578 186.331 501.85 184.499C505.122 182.669 507.955 180.138 510.35 176.909C511.128 175.842 511.689 175.165 512.037 174.875C512.382 174.587 512.757 174.443 513.16 174.443C513.651 174.443 514.054 174.624 514.373 174.984C514.688 175.346 514.848 175.8 514.848 176.346C514.848 177.557 513.88 179.187 511.95 181.234C509.413 183.858 506.262 185.992 502.498 187.635C498.736 189.28 495.066 190.101 491.491 190.101C485.349 190.101 479.928 188.04 475.227 183.915C472.488 181.493 470.384 178.509 468.912 174.962C467.616 171.85 466.966 168.735 466.966 165.619C466.966 162.621 467.544 159.616 468.698 156.6C469.85 153.587 471.435 150.986 473.454 148.794C475.79 146.227 478.558 144.239 481.76 142.826C484.902 141.44 488.189 140.749 491.621 140.749C496.955 140.749 501.786 142.32 506.11 145.464C512.858 150.365 516.203 157.472 516.146 166.787H506.067L493.091 166.831L487.165 166.917" fill="white"/>
<path d="M498.238 164.063V151.459C498.181 148.754 498.123 147.138 498.066 146.603C498.008 146.072 497.806 145.576 497.459 145.114C496.653 143.992 495.008 143.431 492.53 143.431C489.992 143.431 488.405 144.079 487.771 145.373C487.368 146.151 487.165 148.178 487.165 151.459V164.063L492.442 164.235L498.238 164.063ZM487.165 166.917V180.325C487.165 182.92 487.325 184.565 487.642 185.256C488.248 186.583 489.675 187.247 491.925 187.247C495.269 187.247 498.578 186.331 501.85 184.499C505.122 182.669 507.955 180.138 510.35 176.909C511.128 175.842 511.689 175.165 512.037 174.875C512.382 174.587 512.757 174.443 513.16 174.443C513.651 174.443 514.054 174.624 514.373 174.984C514.688 175.346 514.848 175.8 514.848 176.346C514.848 177.557 513.88 179.187 511.95 181.234C509.413 183.858 506.262 185.992 502.498 187.635C498.736 189.28 495.066 190.101 491.491 190.101C485.349 190.101 479.928 188.04 475.227 183.915C472.488 181.493 470.384 178.509 468.912 174.962C467.616 171.85 466.966 168.735 466.966 165.619C466.966 162.621 467.544 159.616 468.698 156.6C469.85 153.587 471.435 150.986 473.454 148.794C475.79 146.227 478.558 144.239 481.76 142.826C484.902 141.44 488.189 140.749 491.621 140.749C496.955 140.749 501.786 142.32 506.11 145.464C512.858 150.365 516.203 157.472 516.146 166.787H506.067L493.091 166.831L487.165 166.917Z" stroke="white" stroke-width="1.33333" stroke-miterlimit="10"/>
<path d="M268.008 16.8403C260.299 23.2547 257.318 31.0435 258.746 40.3395C261.146 55.9731 271.589 64.6723 285.586 69.6515C307.6 77.4819 329.725 75.5315 351.587 68.9587C367.866 64.0659 384.003 58.6435 396.176 45.7363C398.334 43.4467 399.979 45.0451 401.957 46.5683C407.058 50.4963 412.069 54.7635 417.744 57.6803C432.757 65.3955 448.763 70.3795 465.483 72.9843C482.03 75.5603 498.339 75.0179 513.912 68.3123C528.048 62.2275 536.81 51.8947 537.298 35.9027C537.557 27.4611 533.16 19.3203 526.712 15.8227C527.538 18.5907 528.525 21.1779 529.072 23.8563C532.16 38.9923 521.442 48.7891 506.862 43.9043C501.602 42.1411 496.522 39.6099 491.688 36.8547C478.632 29.4099 466.051 21.0787 452.725 14.1683C434.755 4.84989 417.059 4.8979 401.086 19.0979C398.715 21.2083 397.018 20.5268 394.642 19.0324C389.653 15.89 384.667 12.4003 379.182 10.4547C364.642 5.2995 351.2 9.7219 338.608 17.0579C327.13 23.7459 316.152 31.2915 304.603 37.8499C298.755 41.1699 292.341 44.0403 285.819 45.5219C274.773 48.0355 266.826 41.5923 266.253 30.2707C266.04 26.0675 267.315 21.7907 268.008 16.8403ZM399.174 52.8771C399.131 52.8467 399.088 52.8179 399.046 52.7859C373.538 71.9123 341.254 81.8035 309.408 80.2531C293.269 79.4675 276.464 75.4067 264.712 64.3171C256.992 57.0323 252.222 46.2195 252.578 35.5587C252.946 24.4675 259.683 12.9892 270.323 8.95556C275.808 6.87716 282.344 7.16995 287.168 10.5027C288.56 11.4627 289.883 13.3235 288.891 14.6899C288.109 15.7699 286.507 15.6372 285.178 15.5956C280.51 15.4484 275.854 18.0099 273.483 22.0323C271.114 26.0531 271.125 31.3683 273.515 35.3779C274.658 37.2963 276.357 38.9491 278.466 39.6803C281.88 40.8659 285.606 39.4867 288.923 38.0499C298.733 33.7987 308.25 28.8771 317.389 23.3299C331.555 14.7347 345.579 4.34913 362.051 2.56993C372.227 1.46913 382.754 3.91235 391.403 9.38595C392.917 10.3427 394.432 11.4131 396.194 11.7395C399.872 12.4227 403.208 9.75554 406.36 7.73954C421.856 -2.15966 442.578 2.0659 458.941 10.4547C475.302 18.8419 489.757 30.9907 507.027 37.3011C511.378 38.8899 516.696 39.9427 520.28 37.0083C523.288 34.5459 523.867 30.1459 523.395 26.2867C522.73 20.8611 519.346 14.8708 513.886 14.5988C511.387 14.4724 508.254 15.3571 506.829 13.2995C505.048 10.7267 508.618 7.71232 511.682 7.08032C526.168 4.09312 540.963 16.5219 543.208 31.1411C545.453 45.7603 537.109 60.6307 524.986 69.1011C512.861 77.5731 497.608 80.4627 482.818 80.5379C452.976 80.6899 423.558 70.0819 399.174 52.8771Z" fill="white"/>
<path d="M149.195 46.6355C151.163 46.6515 153.005 46.9011 154.415 47.3251C156.219 47.8691 157.992 48.7091 159.266 50.0995C161.942 53.0259 161.587 58.0803 158.741 60.8435C156.464 63.0531 153.118 63.7795 149.946 63.8515C147.31 63.9107 144.619 63.5699 142.229 62.4547C139.84 61.3395 137.77 59.3859 136.886 56.9011C134.163 49.2451 142.426 46.5731 149.195 46.6355" fill="white"/>
<path d="M149.195 46.6355C151.163 46.6515 153.005 46.9011 154.415 47.3251C156.219 47.8691 157.992 48.7091 159.266 50.0995C161.942 53.0259 161.587 58.0803 158.741 60.8435C156.464 63.0531 153.118 63.7795 149.946 63.8515C147.31 63.9107 144.619 63.5699 142.229 62.4547C139.84 61.3395 137.77 59.3859 136.886 56.9011C134.163 49.2451 142.426 46.5731 149.195 46.6355V46.6355Z" stroke="white" stroke-width="1.33333" stroke-miterlimit="10"/>
<path d="M65.4983 2.54434L74.9677 34.9428L79.2677 49.2948L83.1333 62.298L83.6546 63.9491H57.2172L48.8965 33.2052L30.9258 60.21L12.5002 34.5412C10.7215 40.8052 8.78147 48.4899 6.68211 57.5955C5.92403 61.0755 5.3778 63.1427 5.04516 63.7955C4.71204 64.4499 4.03892 64.7764 3.0258 64.7764C1.7514 64.7764 1.11523 64.3411 1.11523 63.4723C1.11523 63.2099 1.52148 61.746 2.33396 59.0788L5.03395 49.8164L9.73587 33.8116L18.9234 2.54434L42.7327 37.0564L65.4983 2.54434Z" fill="white"/>
<path d="M65.4983 2.54434L74.9677 34.9428L79.2677 49.2948L83.1333 62.298L83.6546 63.9491H57.2172L48.8965 33.2052L30.9258 60.21L12.5002 34.5412C10.7215 40.8052 8.78147 48.4899 6.68211 57.5955C5.92403 61.0755 5.3778 63.1427 5.04516 63.7955C4.71204 64.4499 4.03892 64.7764 3.0258 64.7764C1.7514 64.7764 1.11523 64.3411 1.11523 63.4723C1.11523 63.2099 1.52148 61.746 2.33396 59.0788L5.03395 49.8164L9.73587 33.8116L18.9234 2.54434L42.7327 37.0564L65.4983 2.54434Z" stroke="white" stroke-width="1.33333" stroke-miterlimit="10"/>
<path d="M111.923 29.9426L111.835 46.6402L112.008 63.949H89.6558L89.7089 61.557L89.7614 52.6866L89.917 36.7266L89.7089 18.9826L89.6558 16.461H111.965V25.4194C115.291 21.8818 117.608 19.6498 118.909 18.7218C121.918 16.6066 124.754 15.5474 127.416 15.5474C129.035 15.5474 130.374 15.8962 131.429 16.5906C132.485 17.2866 133.013 18.1714 133.013 19.2434C133.013 20.085 132.694 20.781 132.058 21.3314C131.422 21.8818 130.626 22.157 129.672 22.157C129.064 22.157 128.384 21.9842 127.632 21.6354C126.358 21.0258 125.302 20.7218 124.464 20.7218C122.381 20.7218 120.368 21.4322 118.432 22.853C116.493 24.2754 114.323 26.637 111.923 29.9426" fill="white"/>
<path d="M111.923 29.9426L111.835 46.6402L112.008 63.949H89.6558L89.7089 61.557L89.7614 52.6866L89.917 36.7266L89.7089 18.9826L89.6558 16.461H111.965V25.4194C115.291 21.8818 117.608 19.6498 118.909 18.7218C121.918 16.6066 124.754 15.5474 127.416 15.5474C129.035 15.5474 130.374 15.8962 131.429 16.5906C132.485 17.2866 133.013 18.1714 133.013 19.2434C133.013 20.085 132.694 20.781 132.058 21.3314C131.422 21.8818 130.626 22.157 129.672 22.157C129.064 22.157 128.384 21.9842 127.632 21.6354C126.358 21.0258 125.302 20.7218 124.464 20.7218C122.381 20.7218 120.368 21.4322 118.432 22.853C116.493 24.2754 114.323 26.637 111.923 29.9426V29.9426Z" stroke="white" stroke-width="1.33333" stroke-miterlimit="10"/>
<path d="M148.232 45.901C152.088 45.901 155.191 46.757 157.538 48.4674C159.887 50.1778 161.061 52.469 161.061 55.3378C161.061 58.2674 159.872 60.6514 157.496 62.4914C155.117 64.333 152.031 65.2546 148.232 65.2546C143.448 65.2546 139.867 63.9202 137.49 61.253C136.099 59.6882 135.403 57.861 135.403 55.773C135.403 52.8162 136.563 50.4466 138.883 48.6642C141.202 46.8803 144.319 45.9602 148.232 45.901Z" fill="white"/>
<path d="M148.232 45.901C152.088 45.901 155.191 46.757 157.538 48.4674C159.887 50.1778 161.061 52.469 161.061 55.3378C161.061 58.2674 159.872 60.6514 157.496 62.4914C155.117 64.333 152.031 65.2546 148.232 65.2546C143.448 65.2546 139.867 63.9202 137.49 61.253C136.099 59.6882 135.403 57.861 135.403 55.773C135.403 52.8162 136.563 50.4466 138.883 48.6642C141.202 46.8803 144.319 45.9602 148.232 45.901Z" stroke="white" stroke-width="1.33333" stroke-miterlimit="10"/>
</svg>
