<svg width="375" height="375" viewBox="0 0 375 375" fill="none" xmlns="http://www.w3.org/2000/svg">
<circle cx="187.5" cy="187.5" r="187.5" fill="#464646"/>
<path d="M57.4489 163.84C49.7401 170.255 46.7593 178.044 48.1865 187.34C50.5865 202.973 61.0298 211.672 75.0266 216.652C97.041 224.482 119.166 222.532 141.028 215.959C157.307 211.066 173.444 205.644 185.617 192.736C187.775 190.447 189.42 192.045 191.398 193.568C196.499 197.496 201.51 201.764 207.185 204.68C222.198 212.396 238.204 217.38 254.924 219.984C271.471 222.56 287.78 222.018 303.353 215.312C317.489 209.228 326.251 198.895 326.739 182.903C326.998 174.461 322.601 166.32 316.153 162.823C316.979 165.591 317.966 168.178 318.513 170.856C321.601 185.992 310.883 195.789 296.303 190.904C291.043 189.141 285.963 186.61 281.129 183.855C268.073 176.41 255.492 168.079 242.166 161.168C224.196 151.85 206.5 151.898 190.527 166.098C188.156 168.208 186.459 167.527 184.083 166.032C179.094 162.89 174.108 159.4 168.623 157.455C154.083 152.299 140.641 156.722 128.049 164.058C116.571 170.746 105.593 178.292 94.0441 184.85C88.1961 188.17 81.7818 191.04 75.2602 192.522C64.2138 195.036 56.2666 188.592 55.6938 177.271C55.481 173.068 56.7561 168.791 57.4489 163.84ZM188.615 199.877C188.572 199.847 188.529 199.818 188.487 199.786C162.979 218.912 130.695 228.804 98.8489 227.253C82.7097 226.468 65.905 222.407 54.153 211.317C46.433 204.032 41.6634 193.22 42.0186 182.559C42.3866 171.468 49.1241 159.989 59.7641 155.956C65.2489 153.877 71.7849 154.17 76.6089 157.503C78.0009 158.463 79.3241 160.324 78.3321 161.69C77.5497 162.77 75.9482 162.637 74.6186 162.596C69.9514 162.448 65.2953 165.01 62.9241 169.032C60.5545 173.053 60.5657 178.368 62.9561 182.378C64.0985 184.296 65.7978 185.949 67.9066 186.68C71.321 187.866 75.0473 186.487 78.3641 185.05C88.1737 180.799 97.6906 175.877 106.83 170.33C120.996 161.735 135.02 151.349 151.492 149.57C161.668 148.469 172.195 150.912 180.844 156.386C182.358 157.343 183.873 158.413 185.635 158.74C189.313 159.423 192.649 156.756 195.801 154.74C211.297 144.84 232.019 149.066 248.382 157.455C264.743 165.842 279.198 177.991 296.468 184.301C300.819 185.89 306.137 186.943 309.721 184.008C312.729 181.546 313.308 177.146 312.836 173.287C312.171 167.861 308.787 161.871 303.327 161.599C300.828 161.472 297.695 162.357 296.27 160.3C294.489 157.727 298.059 154.712 301.123 154.08C315.609 151.093 330.404 163.522 332.649 178.141C334.894 192.76 326.55 207.631 314.427 216.101C302.302 224.573 287.049 227.463 272.259 227.538C242.417 227.69 212.999 217.082 188.615 199.877Z" fill="#464646" stroke="white" stroke-width="12.3" stroke-miterlimit="10"/>
</svg>
