<?xml version="1.0" encoding="utf-8"?>
<!-- Generator: Adobe Illustrator 23.0.1, SVG Export Plug-In . SVG Version: 6.00 Build 0)  -->
<svg version="1.1" id="Warstwa_1" xmlns="http://www.w3.org/2000/svg" xmlns:xlink="http://www.w3.org/1999/xlink" x="0px" y="0px"
	 viewBox="0 0 480 60" style="enable-background:new 0 0 480 60;" xml:space="preserve">
<style type="text/css">
	.st0{fill:#D50000;}
	.st1{fill:#FFFFFF;}
</style>
<path class="st0" d="M23.45,15.22H7.69V6.95h42.17v8.28H34.19v42.97H23.45V15.22z"/>
<path class="st0" d="M53.76,32.81c0-9.23,2.06-15.98,6.17-20.25c4.11-4.27,10.36-6.41,18.74-6.41c8.38,0,14.63,2.14,18.74,6.41
	c4.11,4.27,6.17,11.02,6.17,20.25c0,17.45-8.3,26.18-24.91,26.18C62.07,58.99,53.76,50.26,53.76,32.81z M89.25,45.66
	c2.28-2.78,3.42-7.07,3.42-12.85c0-6.31-1.11-10.81-3.34-13.49c-2.23-2.68-5.78-4.02-10.66-4.02c-4.88,0-8.43,1.34-10.66,4.02
	c-2.23,2.68-3.34,7.17-3.34,13.49c0,5.78,1.14,10.07,3.42,12.85c2.28,2.79,5.81,4.18,10.58,4.18S86.97,48.44,89.25,45.66z"/>
<path class="st0" d="M115.03,6.95h21.48c7.85,0,13.69,2.03,17.51,6.09c3.82,4.06,5.73,10.65,5.73,19.77c0,8.7-1.91,15.11-5.73,19.22
	c-3.82,4.11-9.66,6.17-17.51,6.17h-21.48V6.95z M135.01,49.92c3.23,0,5.83-0.48,7.8-1.43c1.96-0.96,3.46-2.68,4.5-5.17
	c1.03-2.49,1.55-5.99,1.55-10.5c0-4.56-0.46-8.06-1.39-10.5c-0.93-2.44-2.37-4.12-4.34-5.05c-1.96-0.93-4.67-1.39-8.12-1.39h-9.23
	v34.06H135.01z"/>
<path class="st0" d="M170.02,6.95h21.48c7.85,0,13.69,2.03,17.51,6.09c3.82,4.06,5.73,10.65,5.73,19.77c0,8.7-1.91,15.11-5.73,19.22
	c-3.82,4.11-9.66,6.17-17.51,6.17h-21.48V6.95z M189.99,49.92c3.23,0,5.83-0.48,7.8-1.43c1.96-0.96,3.46-2.68,4.5-5.17
	c1.03-2.49,1.55-5.99,1.55-10.5c0-4.56-0.46-8.06-1.39-10.5c-0.93-2.44-2.37-4.12-4.34-5.05c-1.96-0.93-4.67-1.39-8.12-1.39h-9.23
	v34.06H189.99z"/>
<path class="st1" d="M267.39,41.88l-1.08,15.15h-39.8v-2.55c0.57-0.05,1.41-0.13,2.49-0.25c1.09-0.12,1.85-0.27,2.28-0.47
	c0.72-0.31,1.24-0.77,1.56-1.36c0.32-0.6,0.48-1.36,0.48-2.3V13.63c0-0.81-0.14-1.53-0.41-2.15c-0.28-0.62-0.82-1.12-1.63-1.51
	c-0.55-0.29-1.32-0.57-2.31-0.84c-0.99-0.27-1.81-0.44-2.46-0.48V6.1h21.5v2.55c-0.67,0.02-1.54,0.14-2.6,0.36
	c-1.06,0.22-1.84,0.41-2.31,0.57c-0.81,0.29-1.37,0.78-1.67,1.47c-0.3,0.69-0.45,1.44-0.45,2.23v34.2c0,1.58,0.08,2.81,0.23,3.68
	c0.16,0.87,0.52,1.55,1.09,2.03c0.55,0.43,1.37,0.71,2.46,0.84c1.09,0.13,2.61,0.2,4.58,0.2c0.89,0,1.81-0.02,2.76-0.07
	c0.96-0.05,1.87-0.14,2.73-0.29c0.84-0.14,1.61-0.34,2.31-0.59c0.71-0.25,1.23-0.57,1.56-0.95c0.98-1.1,2.12-2.77,3.43-5.01
	c1.3-2.24,2.21-4.05,2.71-5.44H267.39z"/>
<path class="st1" d="M304.47,38.97c0,2.49-0.4,4.94-1.19,7.34c-0.79,2.4-1.92,4.44-3.38,6.12c-1.65,1.91-3.57,3.34-5.75,4.27
	c-2.18,0.93-4.62,1.4-7.33,1.4c-2.25,0-4.4-0.43-6.43-1.27c-2.04-0.85-3.84-2.09-5.43-3.71c-1.56-1.6-2.8-3.56-3.72-5.87
	c-0.92-2.31-1.38-4.9-1.38-7.77c0-5.53,1.61-10.05,4.83-13.57c3.22-3.52,7.44-5.28,12.66-5.28c4.96,0,9.05,1.67,12.27,5.01
	C302.86,28.98,304.47,33.42,304.47,38.97z M297.04,39.04c0-1.79-0.18-3.69-0.54-5.69c-0.36-2-0.9-3.69-1.62-5.08
	c-0.77-1.48-1.77-2.67-3.02-3.57c-1.25-0.9-2.77-1.35-4.57-1.35c-1.85,0-3.42,0.46-4.73,1.36c-1.31,0.91-2.37,2.15-3.18,3.73
	c-0.77,1.46-1.31,3.12-1.62,4.99c-0.31,1.87-0.47,3.67-0.47,5.42c0,2.3,0.19,4.42,0.56,6.37c0.37,1.95,0.96,3.69,1.78,5.22
	c0.81,1.53,1.84,2.73,3.07,3.61c1.23,0.87,2.76,1.31,4.58,1.31c3,0,5.37-1.45,7.12-4.34C296.16,48.14,297.04,44.14,297.04,39.04z"/>
<path class="st1" d="M348.65,57.02h-17.3v-2.37c0.55-0.05,1.15-0.1,1.81-0.14c0.66-0.05,1.2-0.14,1.63-0.29
	c0.67-0.22,1.17-0.59,1.49-1.13c0.32-0.54,0.48-1.24,0.48-2.1V32.8c0-2.51-0.59-4.45-1.78-5.81s-2.63-2.05-4.33-2.05
	c-1.27,0-2.43,0.2-3.49,0.59c-1.06,0.4-1.99,0.88-2.81,1.45c-0.79,0.55-1.42,1.14-1.89,1.78c-0.47,0.63-0.81,1.14-1.02,1.53v20.35
	c0,0.81,0.17,1.48,0.5,2.01c0.33,0.53,0.84,0.93,1.51,1.22c0.5,0.24,1.05,0.42,1.63,0.54c0.59,0.12,1.19,0.2,1.81,0.25v2.37h-17.33
	v-2.37c0.55-0.05,1.12-0.1,1.7-0.14c0.59-0.05,1.09-0.14,1.53-0.29c0.67-0.21,1.17-0.59,1.49-1.13c0.32-0.54,0.48-1.24,0.48-2.1
	V29.17c0-0.81-0.17-1.56-0.52-2.24c-0.35-0.68-0.83-1.24-1.45-1.67c-0.45-0.29-0.99-0.5-1.61-0.63c-0.62-0.13-1.29-0.22-2.01-0.27
	V22l11.77-0.79l0.5,0.5v4.99h0.18c0.57-0.57,1.29-1.26,2.15-2.06c0.86-0.8,1.67-1.45,2.44-1.96c0.89-0.57,1.94-1.05,3.16-1.44
	c1.22-0.38,2.6-0.57,4.13-0.57c3.4,0,5.92,1.06,7.55,3.18c1.64,2.12,2.46,4.93,2.46,8.45v18.41c0,0.84,0.14,1.51,0.43,2.03
	c0.29,0.51,0.78,0.92,1.47,1.2c0.57,0.24,1.07,0.41,1.49,0.5c0.42,0.1,1,0.17,1.74,0.22V57.02z"/>
<path class="st1" d="M391.75,56.38l-12.38,0.79l-0.54-0.5v-3.3l-0.29-0.07c-1.24,1.39-2.78,2.52-4.61,3.41
	c-1.83,0.89-3.71,1.33-5.64,1.33c-2.01,0-3.95-0.45-5.82-1.35c-1.88-0.9-3.51-2.16-4.89-3.79c-1.41-1.65-2.53-3.64-3.35-5.96
	c-0.82-2.32-1.24-4.88-1.24-7.68c0-2.56,0.44-4.99,1.33-7.29s2.1-4.31,3.66-6.03c1.46-1.6,3.24-2.88,5.36-3.84
	c2.11-0.96,4.27-1.44,6.47-1.44c1.65,0,3.27,0.21,4.86,0.63c1.59,0.42,2.96,0.95,4.1,1.6V10.56c0-1.01-0.17-1.92-0.5-2.75
	s-0.8-1.46-1.4-1.89c-0.67-0.46-1.57-0.78-2.71-0.99c-1.14-0.2-2.36-0.35-3.68-0.45V2.26l14.5-0.79l0.54,0.54v47.7
	c0,0.84,0.16,1.55,0.48,2.13c0.32,0.59,0.79,1.08,1.42,1.49c0.45,0.29,1.11,0.47,1.97,0.54s1.65,0.12,2.37,0.14V56.38z
	 M378.76,50.17V29.46c-0.19-0.62-0.5-1.29-0.93-2.01s-0.97-1.38-1.61-1.97c-0.69-0.6-1.5-1.09-2.44-1.49
	c-0.93-0.4-2.02-0.59-3.26-0.59c-1.43,0-2.75,0.37-3.96,1.11c-1.21,0.74-2.27,1.81-3.21,3.19c-0.88,1.34-1.58,3.04-2.1,5.11
	c-0.51,2.07-0.77,4.36-0.77,6.87c0,2.01,0.19,3.83,0.57,5.47c0.38,1.64,1.03,3.16,1.93,4.58c0.84,1.34,1.9,2.42,3.21,3.23
	c1.3,0.81,2.85,1.22,4.64,1.22c1.91,0,3.49-0.42,4.75-1.26C376.84,52.1,377.9,51.17,378.76,50.17z"/>
<path class="st1" d="M429.72,38.97c0,2.49-0.4,4.94-1.19,7.34c-0.79,2.4-1.92,4.44-3.38,6.12c-1.65,1.91-3.57,3.34-5.75,4.27
	c-2.18,0.93-4.62,1.4-7.33,1.4c-2.25,0-4.4-0.43-6.43-1.27c-2.04-0.85-3.84-2.09-5.43-3.71c-1.56-1.6-2.8-3.56-3.72-5.87
	c-0.92-2.31-1.38-4.9-1.38-7.77c0-5.53,1.61-10.05,4.83-13.57c3.22-3.52,7.44-5.28,12.66-5.28c4.96,0,9.05,1.67,12.27,5.01
	C428.11,28.98,429.72,33.42,429.72,38.97z M422.29,39.04c0-1.79-0.18-3.69-0.54-5.69c-0.36-2-0.9-3.69-1.62-5.08
	c-0.77-1.48-1.77-2.67-3.02-3.57c-1.25-0.9-2.77-1.35-4.57-1.35c-1.85,0-3.42,0.46-4.73,1.36c-1.31,0.91-2.37,2.15-3.18,3.73
	c-0.77,1.46-1.31,3.12-1.62,4.99c-0.31,1.87-0.47,3.67-0.47,5.42c0,2.3,0.19,4.42,0.56,6.37c0.37,1.95,0.96,3.69,1.78,5.22
	c0.81,1.53,1.84,2.73,3.07,3.61c1.23,0.87,2.76,1.31,4.58,1.31c3,0,5.37-1.45,7.12-4.34C421.42,48.14,422.29,44.14,422.29,39.04z"/>
<path class="st1" d="M473.9,57.02h-17.3v-2.37c0.55-0.05,1.15-0.1,1.81-0.14c0.66-0.05,1.2-0.14,1.63-0.29
	c0.67-0.22,1.17-0.59,1.49-1.13c0.32-0.54,0.48-1.24,0.48-2.1V32.8c0-2.51-0.59-4.45-1.78-5.81c-1.19-1.36-2.63-2.05-4.33-2.05
	c-1.27,0-2.43,0.2-3.49,0.59c-1.05,0.4-1.99,0.88-2.8,1.45c-0.79,0.55-1.42,1.14-1.89,1.78c-0.47,0.63-0.81,1.14-1.03,1.53v20.35
	c0,0.81,0.17,1.48,0.5,2.01c0.33,0.53,0.84,0.93,1.51,1.22c0.5,0.24,1.05,0.42,1.63,0.54c0.59,0.12,1.19,0.2,1.81,0.25v2.37h-17.33
	v-2.37c0.55-0.05,1.12-0.1,1.7-0.14c0.59-0.05,1.09-0.14,1.53-0.29c0.67-0.21,1.17-0.59,1.49-1.13c0.32-0.54,0.48-1.24,0.48-2.1
	V29.17c0-0.81-0.17-1.56-0.52-2.24c-0.35-0.68-0.83-1.24-1.45-1.67c-0.45-0.29-0.99-0.5-1.61-0.63c-0.62-0.13-1.29-0.22-2.01-0.27
	V22l11.77-0.79l0.5,0.5v4.99h0.18c0.57-0.57,1.29-1.26,2.15-2.06c0.86-0.8,1.68-1.45,2.44-1.96c0.88-0.57,1.94-1.05,3.16-1.44
	c1.22-0.38,2.6-0.57,4.13-0.57c3.4,0,5.92,1.06,7.55,3.18c1.64,2.12,2.46,4.93,2.46,8.45v18.41c0,0.84,0.14,1.51,0.43,2.03
	c0.29,0.51,0.78,0.92,1.47,1.2c0.57,0.24,1.07,0.41,1.49,0.5c0.42,0.1,1,0.17,1.74,0.22V57.02z"/>
</svg>
